<svg xmlns="http://www.w3.org/2000/svg" viewBox="0 0 470.7 186"><defs><style>.cls-1{fill:#ffffff;}</style></defs><title>Asset 26</title><g id="Layer_2" data-name="Layer 2"><g id="Layer_1-2" data-name="Layer 1"><path class="cls-1" d="M252.59,79.78c-.65.54-1.3,1.07-1.93,1.62-11.54,10.28-21,22.67-30.55,37-.87,1.24-1.69,2.54-2.53,3.85a35.68,35.68,0,0,0-2.15,3.83c-1.23,2.55-2,5.19-1.67,7.22a4.4,4.4,0,0,0,.14.74,4.18,4.18,0,0,0,.22.71,2.49,2.49,0,0,0,.31.61l.14.3c.05.09.14.16.2.25a5.07,5.07,0,0,0,2.16,1.68,9.5,9.5,0,0,0,3.12.71,12.12,12.12,0,0,0,3.3-.37,9.33,9.33,0,0,1-7.07-1,4.64,4.64,0,0,1-1.74-2.16,6.8,6.8,0,0,1-.35-3.27c.27-2.52,1.65-5.51,3.38-8.46s3.78-6.18,5.82-9.15a157.16,157.16,0,0,1,28-31.68,40.09,40.09,0,0,1-5.62,8.16,182.69,182.69,0,0,0-17.22,20.87l-1.14-.78c-1.67,2.73-3.36,5.42-5,8.12q-1.22,2-2.41,4c-.82,1.35-1.49,2.55-2.1,3.76a15.2,15.2,0,0,0-1.94,6.1,5.24,5.24,0,0,0,.08,1,2.12,2.12,0,0,0,.11.45,1.22,1.22,0,0,0,.15.36,2.41,2.41,0,0,0,.94,1.19,5.93,5.93,0,0,0,2.1.87,8.6,8.6,0,0,0,2.78.05,7.67,7.67,0,0,0,2.63-.85,9.22,9.22,0,0,0,1.06-.69c.13-.14.27-.28.41-.41a3.13,3.13,0,0,0,.46-.53,11,11,0,0,0,2.22-6,18,18,0,0,0-1-7.37c0,.75-.38.4-.64.31l0-.13,0,.13c-.24-.08-.31,0-.08,1.22-.23-1.18-.16-1.3.08-1.22a18.85,18.85,0,0,1,.61,7,13.23,13.23,0,0,1-.7,3,9.43,9.43,0,0,1-1.32,2.36c-.14.15-.28.37-.4.48a2.5,2.5,0,0,0-.33.32,4.4,4.4,0,0,1-.39.29,1.68,1.68,0,0,1-.43.28,8.79,8.79,0,0,1-1,.5,12,12,0,0,1-1.18.3,6.4,6.4,0,0,1-4.25-.54,2.38,2.38,0,0,1-.76-.78.65.65,0,0,0-.11-.22,3.18,3.18,0,0,0-.11-.33,4.35,4.35,0,0,1-.1-.78,12.27,12.27,0,0,1,1.56-5.45c.55-1.13,1.21-2.31,2-3.54s1.6-2.62,2.45-3.91q2.49-3.9,5.21-7.71c-2.76,4-5.4,8.08-7.8,12.17a30.49,30.49,0,0,0-2.55,5.33,7.43,7.43,0,0,0-.46,3.51,1.61,1.61,0,0,0,.79,1.24,5,5,0,0,0,2.79.65,6.69,6.69,0,0,0,3.33-.93,3.4,3.4,0,0,0,.59-.41c.18-.16.28-.28.47-.46a7.91,7.91,0,0,0,1.07-1.61c1.25-2.33,1.58-5.93.8-9.52a23,23,0,0,0-.73-2.67c-.16-.43-.32-.85-.5-1.3s-.38-.92-.62-1.38a44.94,44.94,0,0,0-3.21-5.59c-2.49-3.79-5.62-7.69-8.74-12.22a54.53,54.53,0,0,1-7.9-16,34.81,34.81,0,0,1-.92-4.42c-.14-.85-.19-1.73-.27-2.52s-.06-1.55-.06-2.14.17-1.19.25-1.77.25-1.26.38-1.89a27.42,27.42,0,0,1,1.1-3.57,29.13,29.13,0,0,1,3.41-6.38,26.86,26.86,0,0,1,5-5.3,21.75,21.75,0,0,1,6.75-3.71c-.49.64-.13,1.1.3,1.53s.95.91.95,1.42-.46,1.1-1.77,2a28.87,28.87,0,0,0-6,5.14l1.1.87a11.18,11.18,0,0,1,7.78-3.56A4.21,4.21,0,0,1,227,60.33a1.2,1.2,0,0,1,.23,1.2,2.27,2.27,0,0,1-.38.55,2.9,2.9,0,0,1-.4.54c-.15.17-.32.31-.51.51s-.38.32-.59.55c-.43.34-.92.83-1.54,1.42a12.79,12.79,0,0,0-3.51,6.07c-.11.3-.11.6-.19.9s0,.59-.1.89a19,19,0,0,0,0,2.25,21.69,21.69,0,0,0,1.07,5,45,45,0,0,0,5.93,11C229.74,95,232.93,99,236,103.45a58.66,58.66,0,0,1,3.11,5.23,42.34,42.34,0,0,1,2.61,6,34.67,34.67,0,0,1,1.84,13.67,26,26,0,0,1-5.39,14.32,19,19,0,0,1-1.37,1.57c-.54.54-1.1,1.08-1.68,1.58s-1.19.89-1.8,1.32-1.26.73-1.89,1.08a22.35,22.35,0,0,1-19.37.35,18.47,18.47,0,0,1-2.78-1.65c-.44-.33-.89-.64-1.32-1s-.82-.78-1.23-1.19a10.2,10.2,0,0,1-1.11-1.32c-.35-.47-.7-.93-1-1.42s-.55-1-.81-1.53l-.37-.78-.29-.77a18.48,18.48,0,0,1-1.1-6.23,22.79,22.79,0,0,1,.73-5.6,36.65,36.65,0,0,1,3.65-8.72c.35-.63.71-1.23,1.06-1.83l1-1.68c.69-1.11,1.38-2.22,2.1-3.3,1.41-2.2,2.88-4.35,4.38-6.45a145.07,145.07,0,0,1,9.48-12c2.34-2.77,5.33-6.74,8.24-10.22s5.71-6.45,7.33-7.4c2.17-1.52,2.77-1.06,3.08-.21a219.67,219.67,0,0,0-22.64,26.82c-2.13,2.86-4.17,5.79-6.17,8.74-1,1.49-2,3-2.93,4.49l-1.44,2.26c-.49.78-1,1.59-1.44,2.42a38.82,38.82,0,0,0-2.57,5.42,21.89,21.89,0,0,0-1.41,6.6,15.42,15.42,0,0,0,1.5,7.52,14.75,14.75,0,0,0,5.46,6.08,14.86,14.86,0,0,1-5.31-6l-.43-.92c-.13-.31-.21-.61-.32-.92a13.23,13.23,0,0,1-.48-1.85,17.5,17.5,0,0,1-.26-1.87c0-.62,0-1.24,0-1.83a21.52,21.52,0,0,1,1.35-6.55,38,38,0,0,1,2.54-5.41c.46-.84.94-1.65,1.43-2.44l1.43-2.28c.94-1.53,2-3,2.92-4.54,2-3,4-6,6.15-8.94A210.38,210.38,0,0,1,243.32,76c.22.8.47,1.6,1.45,1.58l1.39-1.42,2.35-2.33c6.31-3.65,6.65-.57,5.38,3C253.5,77.75,253.09,78.73,252.59,79.78Z"/><path class="cls-1" d="M162.08,76.93a25.92,25.92,0,0,1,3-.36,28.54,28.54,0,0,1,6.53.45,33,33,0,0,1,5.91,1.74c1,.37,1.87.79,2.81,1.26l.72.39.4.22.38.24a16.36,16.36,0,0,1,1.43,1,20.26,20.26,0,0,1,4.72,5,27.32,27.32,0,0,1,4.32,12,34.27,34.27,0,0,1-.86,12.46,78.09,78.09,0,0,1-2.73,8.25c-1,2.7-2.15,5.34-3.44,8a50.78,50.78,0,0,1-4.59,7.86,31.65,31.65,0,0,1-6.38,6.64,30.54,30.54,0,0,0,4.06-3.56,36.13,36.13,0,0,0,3.35-4.1,54.35,54.35,0,0,0,5-8.9,87.47,87.47,0,0,0,3.65-9.29,47.06,47.06,0,0,0,2.2-10.27,33.75,33.75,0,0,0-.75-11,25.83,25.83,0,0,0-5.14-10.58,20.21,20.21,0,0,0-4.84-4.23c-.54-.33-1-.55-1.38-.78s-.85-.45-1.27-.65c-.85-.41-1.71-.78-2.58-1.12A29.37,29.37,0,0,0,165,75.5a18.82,18.82,0,0,1,11.77-.24,36.33,36.33,0,0,1,3.69,1.47c.6.29,1.2.58,1.86.94s1.38.84,2,1.26a23.48,23.48,0,0,1,6.3,6.62A28.65,28.65,0,0,1,194,93a33.82,33.82,0,0,1,1.33,7.55l-1.38.11a34.65,34.65,0,0,1-.32,10,50.82,50.82,0,0,1-2.45,8.93,80.43,80.43,0,0,1-3.46,8,53.33,53.33,0,0,1-4.7,7.86,36.72,36.72,0,0,1-6.66,7.09,30.08,30.08,0,0,1-8.89,5,25.3,25.3,0,0,1-5.27,1.23c-.45,0-.91.1-1.37.12l-1.41,0a18.92,18.92,0,0,1-2.81-.16,26.06,26.06,0,0,1-10.42-3.64c.77.73.1.63-.21.7l-.18-.13.18.13c-.28,0-.28.26,1.36,1.24-1.64-1-1.64-1.2-1.36-1.24a25.63,25.63,0,0,0,10.52,4,18.65,18.65,0,0,0,2.89.21h1.45c.48,0,1-.07,1.43-.11a25,25,0,0,0,5.44-1.23,29.77,29.77,0,0,0,9.1-5.12,33.4,33.4,0,0,0,3.67-3.45,41.23,41.23,0,0,0,3.05-3.77,54.7,54.7,0,0,0,4.65-7.92c1.31-2.67,2.4-5.22,3.47-8a49.5,49.5,0,0,0,3.74-18.72,46.09,46.09,0,0,1-2.28,15.08c-.71,2.29-1.52,4.47-2.36,6.57s-1.76,4.2-2.82,6.33a45.05,45.05,0,0,1-8.68,12.35,29.87,29.87,0,0,1-14.61,8.05,25.76,25.76,0,0,1-6.85.43c-.77-.08-1.53-.18-2.3-.28a26.17,26.17,0,0,1-8.38-3.14A31,31,0,0,1,135.57,135a32.55,32.55,0,0,1-3-7.93c-.14-.7-.32-1.43-.41-2.11l-.26-2a40,40,0,0,1-.15-4.08A43.63,43.63,0,0,1,135,103.5a55.54,55.54,0,0,1,2.9-6.24c1-1.38,2.07-2.7,3.11-4l1.57-1.94c.58-.7,1.16-1.39,1.77-2a61.79,61.79,0,0,1,7.64-7.1c-.12,1.2,1.67,1.44,2.11,2.36.23.46.14,1.06-.61,2s-2.17,2.27-4.38,4.51l1.05.91a18.65,18.65,0,0,1,6.55-3.74,6.85,6.85,0,0,1,4.27-.24c.94.34,1.15,1.14.76,2.24a17.44,17.44,0,0,1-3.06,4.43c-.9,1-1.77,2.13-2.59,3.25-.4.57-.8,1.14-1.17,1.73s-.87,1.37-1.28,2.08a50.72,50.72,0,0,0-4.39,9,26.25,26.25,0,0,0-1.73,9.4c.05.75.08,1.51.2,2.25a7.43,7.43,0,0,0,.19,1,9.4,9.4,0,0,0,.25,1,13.52,13.52,0,0,0,1.77,3.72,15.94,15.94,0,0,0,3.94,4.25,11.48,11.48,0,0,0,4.47,2c.36.07.71.08,1.06.14s.69,0,1.06,0a10.52,10.52,0,0,0,2.3-.43,16.67,16.67,0,0,0,5-2.6,23.2,23.2,0,0,0,6.16-7.35,54.65,54.65,0,0,0,2.54-5.08c.81-1.81,1.56-3.63,2.19-5.41a36.78,36.78,0,0,0,2.24-10.29,21.82,21.82,0,0,0-1.43-9.09,7.71,7.71,0,0,0-1.93-2.6,7.38,7.38,0,0,0-.64-.5l-.33-.22-.37-.21a13.83,13.83,0,0,0-1.73-.76,33.63,33.63,0,0,0-3.72-1.12l-1.41-.35a6.76,6.76,0,0,1-1-.37,2.48,2.48,0,0,1-1.36-.88,1.51,1.51,0,0,1-.1-1.15,18,18,0,0,1,6,.76,25.25,25.25,0,0,1,2.94,1.09c.46.21,1,.45,1.29.64a11.39,11.39,0,0,1,1.11.76c2.82,2.13,4.61,6,5.22,10.08.68,5-.43,10.23-2.38,15.36a77.61,77.61,0,0,1-3.42,7.63,39.64,39.64,0,0,1-4.24,6.68,36.31,36.31,0,0,0,4.31-6.5,68.56,68.56,0,0,0,3.46-7.6c2-5.14,3.08-10.49,2.27-15.57-.54-4-2.2-8-5-10.28a10.13,10.13,0,0,0-1.11-.8,11.1,11.1,0,0,0-1.27-.71,22.6,22.6,0,0,0-2.92-1.19,18.59,18.59,0,0,0-6.06-1c.24-.72.56-1.48,0-2.13l-.46,0a7.67,7.67,0,0,0-1.12.12c-.43.09-.92.13-1.36.26l-1.21.34c-.73,0-1.37.09-2,.06a13.85,13.85,0,0,1-1.46,0,2.23,2.23,0,0,1-1.7-.79,2,2,0,0,1-.07-1.75,6.55,6.55,0,0,1,1.46-2.36c.39-.36.83-.74,1.31-1.15S161.49,77.3,162.08,76.93Z"/><path class="cls-1" d="M68.32,160.62c.6-1.59,1.18-3.18,1.8-4.74,5.84-14.37,14.54-26.77,23.73-38.67,4.6-5.95,9.38-11.81,14.09-17.79,1.31-1.68,2.55-3.09,3.77-4.57s2.39-2.93,3.53-4.41,2.24-3,3.25-4.52c.5-.77,1-1.53,1.43-2.3.23-.39.42-.77.64-1.15l.35-.66a8.24,8.24,0,0,0,.73-1.89,3.41,3.41,0,0,0-.06-2.07,2.77,2.77,0,0,0-1.48-1.47A4.35,4.35,0,0,0,118,76a8.27,8.27,0,0,0-2.18.48l-.72.27-.89.38c-.59.27-1.18.57-1.78.88a56,56,0,0,0-7,4.59c-2.3,1.72-4.54,3.59-6.76,5.53l-1.67,1.47-.81.72-.69.65c-1,1-2,2.06-3.07,3.11-4.13,4.23-8.2,8.44-12.2,12.43,4.79-4.67,9.55-9.49,14.28-14.18.58-.57,1.19-1.16,1.7-1.64l1.81-1.57c1.27-1.09,2.52-2.15,3.79-3.18a83.63,83.63,0,0,1,7.76-5.69,41.06,41.06,0,0,1,4-2.26c.66-.32,1.32-.62,2-.87a5.3,5.3,0,0,1,.66-.24,5,5,0,0,1,.55-.17,5.66,5.66,0,0,1,2.24-.16,3.17,3.17,0,0,1,1.93,1,2.66,2.66,0,0,1,.47,2.12,7.66,7.66,0,0,1-.69,2.09l-.27.52-.52,1c-.37.66-.76,1.31-1.17,2-.82,1.31-1.73,2.61-2.68,3.9-1.9,2.58-4,5.09-6.15,7.66-.55.66-1.1,1.29-1.7,2.06l-1.59,2-3.15,3.91c-4.22,5.21-8.52,10.41-12.68,15.76-8.3,10.68-16.2,22-21.53,34.88a62.74,62.74,0,0,1,7.25-18.62,221.47,221.47,0,0,1,15.53-22c2.7-3.44,5.4-6.79,8.07-10.11l4-5,2-2.5c.81-1,1.48-1.8,2.16-2.63l1.08.88c1.84-2.35,3.58-4.61,5.19-6.89a56.38,56.38,0,0,0,4.19-6.73l.21-.41,0-.12.1-.22c.06-.15.11-.3.16-.45a2.56,2.56,0,0,0,.12-1,1.4,1.4,0,0,0-1.36-1.14,2.9,2.9,0,0,0-1,.08,3.05,3.05,0,0,0-.5.15c-.47.17-1,.41-1.55.65a46.05,46.05,0,0,0-6.59,3.87c-2.2,1.52-4.38,3.2-6.54,5-1.09.88-2.16,1.79-3.26,2.73l-.84.71-.6.54L95.5,93.73,83.06,106c-4.19,4.13-8.41,8.26-12.75,12.37-2.17,2-4.37,4.1-6.64,6.14s-4.59,4-7.19,6a36.35,36.35,0,0,1-4.49,3l-.74.38-.87.38a11.26,11.26,0,0,1-1.08.38,8.6,8.6,0,0,1-1.53.32l-.47.05h-.56a10.42,10.42,0,0,1-1.33-.12,8.26,8.26,0,0,1-1.69-.52,7.77,7.77,0,0,1-1.79-1.14,8,8,0,0,1-1.33-1.56,7.26,7.26,0,0,1-1.09-3.69,5.66,5.66,0,0,1,0-.62l0-.53.07-.52.08-.37.18-.71c.12-.41.23-.73.37-1.09l.36-.85.35-.73c.47-.91.93-1.71,1.38-2.44.9-1.48,1.8-2.8,2.7-4.11-1.22,1.35-.82.32-.78-.12l.22-.29-.22.29c0-.37-.19-.38-2.1,2.34,1.91-2.72,2.14-2.71,2.1-2.34-.92,1.27-1.84,2.57-2.78,4.06a27.19,27.19,0,0,0-1.44,2.52c-.13.23-.25.49-.39.8a10.2,10.2,0,0,0-.39,1l-.2.55c-.07.21-.14.5-.2.74l-.09.39,0,.2,0,.28c-.05.38-.09.76-.11,1.14a8.09,8.09,0,0,0,.82,3.88,8,8,0,0,0,5.1,4.23,9.35,9.35,0,0,0,.93.21c.23,0,.47.06.71.07a8.93,8.93,0,0,0,2.32-.12c.28-.05.51-.11.76-.17s.51-.13.68-.19c.36-.12.79-.27,1.07-.4a16.77,16.77,0,0,0,1.63-.78,37.83,37.83,0,0,0,4.55-3c2.62-2,4.93-4,7.19-6s4.44-4,6.59-6C79.48,111.3,87.59,103,95.62,94.91c1-1,2-2,2.75-2.65l3.19-2.74c2.1-1.77,4.21-3.46,6.34-5a48.85,48.85,0,0,1,6.38-4c.52-.26,1-.51,1.54-.71.25-.12.5-.21.74-.3l.23-.08a1.93,1.93,0,0,1,.58-.08.9.9,0,0,1,.89.55,1.42,1.42,0,0,1-.24,1l-.08.13-.42.77c-.29.51-.58,1-.92,1.57-.66,1.06-1.39,2.14-2.17,3.22-1.55,2.16-3.28,4.33-5.11,6.52A87.14,87.14,0,0,0,116.76,83c.24-.42.48-.83.7-1.23l.43-.82a2.3,2.3,0,0,0,.15-.32.78.78,0,0,0,0-.7.77.77,0,0,0-.63-.33,1.55,1.55,0,0,0-.37,0l-.18,0-.12,0-.53.21a48.39,48.39,0,0,0-9.89,6.19c-1.67,1.28-3.31,2.65-5,4.07l-2.5,2.19-.54.47-.46.44-1.12,1.11-9.51,9.67c-6.42,6.51-12.88,13-19.77,19.34-1.73,1.58-3.48,3.15-5.32,4.71s-3.72,3.11-5.91,4.66a30.35,30.35,0,0,1-3.9,2.38,13.9,13.9,0,0,1-3.47,1.25,7.23,7.23,0,0,1-.76.12c-.28,0-.56.06-.84.08a8.93,8.93,0,0,1-1.14,0,7.81,7.81,0,0,1-1.3-.19,9.34,9.34,0,0,1-1.55-.5,8.86,8.86,0,0,1-1.68-.95,8.68,8.68,0,0,1-2.52-2.89,10.12,10.12,0,0,1-.76-2,10.35,10.35,0,0,1-.23-1.47c0-.25,0-.49,0-.73s0-.33,0-.51.06-.62.1-.93a11.68,11.68,0,0,1,.63-2.34,18.64,18.64,0,0,1,1.22-2.6c.77-1.37,1.49-2.46,2.22-3.52,2.88-4.13,5.73-7.67,8.52-11.31s5.51-7.16,8-10.75a71.59,71.59,0,0,0,6.4-10.59c.1-.21.18-.41.27-.62l.18-.44c0-.13.07-.18.08-.22a1,1,0,0,0,0-.3.46.46,0,0,0-.28-.48,1.06,1.06,0,0,0-.58-.07l-.15,0-.3.12-.19.07-.24.11a14.5,14.5,0,0,0-2.08,1.12,37.2,37.2,0,0,0-4.61,3.5c-1.56,1.36-3.12,2.85-4.66,4.43-2.11,2.1-6.23,6.73-8.36,9.19l-3.61,3.51q-1.71,1.62-3.38,3.28c-2.23,2.23-4.4,4.53-6.54,6.88-4.27,4.69-8.37,9.59-12.43,14.58.34-1.79-2.2-.75-2.72-1.69s.93-3.92,9.4-13.58L24,113.89c-17.7,18.76-27.51,23.22-12.35,2.36,4.34-5.85,9.27-12.09,14.87-18.44l4.14-4.63,4.2-4.79c2.92-3.3,6-6.68,9.56-10a69,69,0,0,1,5.75-4.86,37.45,37.45,0,0,1,7.3-4.41c.69-.32,1.53-.63,2.35-.92a20.67,20.67,0,0,1,3.15-.76,18.89,18.89,0,0,1,6.41.08,15.17,15.17,0,0,1,10.38,5.91,14.83,14.83,0,0,1,2.06,11.74c-.12.53-.22,1-.35,1.57l-.48,1.56c-.16.51-.33,1-.51,1.45l-.26.66-.21.49c-.54,1.3-1.13,2.5-1.73,3.65a116.07,116.07,0,0,1-7.69,12.31c-3.86,5.48-7.9,10.64-11.67,15.66-.93,1.25-1.85,2.49-2.69,3.69a34.87,34.87,0,0,0-2.07,3.22,2.05,2.05,0,0,0-.13.25.44.44,0,0,0-.06.13s0,0,0,0c-.32-.13-.67-.26-.89-.37-.51-.23-1-.43-1.57-.61q-.41-.13-.81-.24L50,128.4a8.15,8.15,0,0,0-1.3-.29A5.44,5.44,0,0,0,47,128c-.27.07-.32.06-.42.1l-.07,0,.26-.16h0l-.08,0,0,0,0,0s0,0,0,0,0-.07.05-.13a.61.61,0,0,0,0-.18,4.82,4.82,0,0,0,0-1.44l-.19-1a7.41,7.41,0,0,0-.32-1.14,13.74,13.74,0,0,0-.43-1.38c-.16-.46-.35-.85-.56-1.43l-.15-.39-.07-.17h0l.05,0,.18-.1a13.81,13.81,0,0,0,1.3-.82,82.51,82.51,0,0,0,6.72-5.37c2.31-2,4.61-4.11,6.92-6.24,4.6-4.28,9.19-8.68,13.81-13.09,3.18-3,6.36-6.13,9.62-9.3l2.49-2.42,1.35-1.28.4-.37.47-.41.65-.55c1.74-1.49,3.58-3,5.47-4.54a81.35,81.35,0,0,1,12.65-8.51A38.14,38.14,0,0,1,111,65.92l.61-.24a7.32,7.32,0,0,1,.75-.25l1.53-.49A24.24,24.24,0,0,1,117,64.3a16.22,16.22,0,0,1,11.41,2.35,12.28,12.28,0,0,1,5.53,9.56,16.49,16.49,0,0,1-.65,5.9c-.15.5-.25,1-.44,1.49l-.56,1.46a15.39,15.39,0,0,1-.64,1.44l-.33.72-.16.36-.12.23a76.51,76.51,0,0,1-8.6,12.49c-1.5,1.84-3.07,3.65-4.45,5.28l-4.25,5.18L105.11,121a180.63,180.63,0,0,0-13.17,18.56c-4.1,6.57-7.08,12.68-8.74,15.25-2.14,3.81-2.85,3.76-3.39,2.82a97.33,97.33,0,0,1,6.69-13.74c1.25-2.24,2.66-4.4,4-6.57s2.85-4.29,4.38-6.39c6-8.44,12.63-16.49,19.1-24.75l1.48-1.85,1.48-1.78c1-1.21,2.09-2.46,3.12-3.73a95.46,95.46,0,0,0,6-8,46.19,46.19,0,0,0,2.68-4.57,23,23,0,0,0,2.33-6.73,11.92,11.92,0,0,0-.72-6.65,10,10,0,0,0-4.7-4.71A11.68,11.68,0,0,0,122.42,67a14.4,14.4,0,0,0-3.49-.29,19.54,19.54,0,0,0-3.6.52,16.21,16.21,0,0,0-1.78.49c-.57.17-1.25.41-1.65.57a50.5,50.5,0,0,0-9.4,5c-2.85,1.89-5.53,3.92-8.11,6-1.29,1-2.55,2.08-3.78,3.12l-1,.82-1,.94-1.8,1.7,1.78-1.65c.57-.53,1.46-1.3,2-1.71l3.74-3c2.55-2,5.2-4,8-5.87a52,52,0,0,1,9.24-5l.66-.25c.25-.09.53-.21.83-.29.58-.18,1.16-.39,1.75-.53a15.5,15.5,0,0,1,1.77-.38l.88-.15.89-.07a13.61,13.61,0,0,1,6.72,1.09c.51.23,1,.53,1.48.8s.91.66,1.36,1A9.06,9.06,0,0,1,130,72.47,10.94,10.94,0,0,1,131,79a22,22,0,0,1-2.15,6.73c-.27.6-.46.94-.68,1.34s-.42.79-.65,1.17c-.44.77-.9,1.5-1.36,2.23a97.59,97.59,0,0,1-6,8.2c-1,1.29-2.1,2.57-3.14,3.82s-1.94,2.37-3,3.71c-6.52,8.19-13.19,16.11-19.23,24.4-3,4.13-5.89,8.35-8.48,12.71-1.34,2.17-2.5,4.41-3.71,6.63s-2.25,4.53-3.16,6.87c-.39-.94-.81-1.91-1.91-1,0,0-.14.37-.38,1s-.61,1.42-.89,2.38c-.6,1.89-1.43,4.14-1.77,5.7-.59,1.48-1.2,2.72-1.65,3.78a24.18,24.18,0,0,1-1.23,2.56c-.76,1.3-1.39,1.83-1.91,1.75-1-.15-1.63-2.79-1.78-6.34C68,164.87,68.06,162.84,68.32,160.62Z"/><path class="cls-1" d="M12.35,115.1c.54-.7-.23.26-.39.45-.34.4-.7.78-1.05,1.17-.73.78-1.47,1.54-2.22,2.3a65.47,65.47,0,0,0-4.54,5c-3.21,4.1-6.52,10.86-1.78,15.18a6.44,6.44,0,0,0,9-.33A51.11,51.11,0,0,0,16,133.17c3.18-4.06,6.31-8.15,9.56-12.15a130.53,130.53,0,0,1,11.19-12.43,3.87,3.87,0,0,0-5.48-5.47c-6.34,6-11.75,13-17.13,19.93-.66.85-8.21,10.39-8.24,10.36a3.73,3.73,0,0,1,.93-.18c.54,0,.59.26,1,.52-.43-.31-.1-.36,0,0s-.06.63,0-.19c0,.09-.08.42,0-.06a9.41,9.41,0,0,1,.31-1.07,8.92,8.92,0,0,1,.87-1.78c.24-.4.51-.78.77-1.16,0,0,.36-.5.13-.2s.34-.41.39-.48c2.8-3.4,6.15-6.27,8.83-9.78,1.24-1.61.31-4.4-1.39-5.3-2-1.08-4-.33-5.3,1.39Z"/><path class="cls-1" d="M19.16,119.39l-.07-.09.39.92,0-.1.14,1a.89.89,0,0,1,0-.23l-.13,1,0-.12-.39.93a1.82,1.82,0,0,1,.26-.45l-.6.78q3.53-4.44,7.37-8.63a4.05,4.05,0,0,0,1.13-2.74A3.87,3.87,0,0,0,20.64,109q-2.36,2.55-4.59,5.22c-.73.86-1.45,1.74-2.15,2.62a13.26,13.26,0,0,0-1.45,1.9,5,5,0,0,0-.62,2.31,4,4,0,0,0,.64,2.26,4.25,4.25,0,0,0,2.32,1.78,4,4,0,0,0,3-.39,3.87,3.87,0,0,0,1.78-2.32,3.7,3.7,0,0,0-.39-3Z"/><path class="cls-1" d="M13.6,134.12c.41-.72.77-1.46,1.18-2.18.19-.34.4-.66.62-1,.37-.59-.39.39-.06.07l.35-.37c1.25-1.23,2.55-2.37,3.68-3.72a45.2,45.2,0,0,0,5.94-9.22,4,4,0,0,0-1.38-5.3c-1.75-.92-4.35-.55-5.3,1.39a50.46,50.46,0,0,1-2.45,4.44c-.46.73-.95,1.46-1.46,2.16-.13.18-.27.36-.4.55-.32.43.44-.54.1-.13s-.58.71-.88,1.05c-1.12,1.29-2.47,2.33-3.59,3.58a25.29,25.29,0,0,0-3,4.76,3.93,3.93,0,0,0,1.39,5.3,3.94,3.94,0,0,0,5.3-1.39Z"/><path class="cls-1" d="M77.42,138.51a.79.79,0,0,1-.42-.12.77.77,0,0,1-.23-1.07c.87-1.36,21.5-33.33,34-43.41a.78.78,0,0,1,1.09.11.77.77,0,0,1-.12,1.09C99.44,105,78.28,137.83,78.07,138.16A.77.77,0,0,1,77.42,138.51Z"/><path class="cls-1" d="M405,155.92l2.12-4.66c6.81-14.11,16.09-26.2,25.58-38,4.75-5.92,9.6-11.79,14.28-17.86,2.41-3.11,4.68-6.08,6.76-9.22.51-.78,1-1.56,1.49-2.35.22-.38.5-.84.65-1.11l.46-.8a12.32,12.32,0,0,0,1.12-2.56,3.9,3.9,0,0,0,.16-2.06,2.11,2.11,0,0,0-1.44-1.4,7.81,7.81,0,0,0-4.3.18l-.54.16-.77.3c-.26.11-.49.19-.78.33l-.91.43c-.6.26-1.2.6-1.81.93s-1.19.69-1.79,1a71,71,0,0,0-7,5c-2.28,1.84-4.52,3.81-6.75,5.83l-1.63,1.48c-.46.43-1,1-1.51,1.49l-3.15,3.21c-4.19,4.31-8.34,8.56-12.42,12.6,4.89-4.73,9.73-9.58,14.55-14.39l1.79-1.77.85-.81.87-.78,3.81-3.33c2.53-2.17,5.1-4.24,7.73-6.09,1.32-.94,2.65-1.79,4-2.59.68-.39,1.35-.74,2-1.11l1-.48a10.42,10.42,0,0,1,1-.43,11.89,11.89,0,0,1,2.59-.83,7.08,7.08,0,0,1,2.25-.08,2.26,2.26,0,0,1,1.84,1.09,3.26,3.26,0,0,1,0,2.2,10.17,10.17,0,0,1-.84,2L456,82l-.44.79c-.37.65-.79,1.34-1.21,2-1.7,2.71-3.62,5.36-5.66,8s-4.14,5.32-6.29,8l-13,15.73c-8.62,10.57-17.06,21.62-23.28,34.2a66.61,66.61,0,0,1,8.29-18.36c5.16-7.75,10.79-14.79,16.32-21.6L439,100.67c1.32-1.66,2.67-3.32,4-5l3.87-5,1.15.85c1.69-2.4,3.3-4.78,4.72-7.15.68-1.12,1.47-2.57,1.74-3.1a7.89,7.89,0,0,0,.37-.91,2.84,2.84,0,0,0,.17-.95.93.93,0,0,0-.42-.83,2.87,2.87,0,0,0-1.9-.15,4.12,4.12,0,0,0-.47.13l-.14,0-.3.11-.59.23c-.17.06-.47.21-.74.34l-.83.38c-.55.26-1.1.59-1.66.88a60.68,60.68,0,0,0-6.66,4.4c-2.2,1.65-4.38,3.44-6.56,5.31l-3.27,2.84c-.34.3-.91.85-1.4,1.32l-1.56,1.52c-8.39,8.29-16.84,16.72-25.75,25-2.24,2.06-4.51,4.11-6.89,6.15a77.53,77.53,0,0,1-7.81,6,23.88,23.88,0,0,1-2.64,1.5,13.29,13.29,0,0,1-1.85.75l-.58.17c-.22.06-.49.11-.73.16a9.12,9.12,0,0,1-1.87.15,10.5,10.5,0,0,1-1.36-.16c-.2,0-.51-.13-.79-.22a8.36,8.36,0,0,1-.83-.32,7.26,7.26,0,0,1-2.92-2.44,6.27,6.27,0,0,1-.51-.83,6.72,6.72,0,0,1-.45-1.07,5.7,5.7,0,0,1-.16-.55c-.05-.19-.09-.39-.11-.49q-.06-.39-.09-.78c0-.26,0-.52,0-.78s0-.37,0-.56.09-.69.15-1l.18-.7a5.94,5.94,0,0,1,.19-.62c.12-.33.27-.74.39-1,.25-.59.49-1.06.74-1.53a50.55,50.55,0,0,1,2.8-4.51c.92-1.36,1.84-2.65,2.76-3.93-1.25,1.3-.83.28-.79-.15l.22-.29-.22.29c0-.38-.2-.36-2.13,2.21,1.93-2.57,2.17-2.59,2.13-2.21-.94,1.23-1.88,2.49-2.83,3.83a45.14,45.14,0,0,0-2.91,4.56c-.25.46-.52,1-.79,1.63-.15.38-.27.69-.42,1.14l-.21.75-.09.39-.1.56-.07.56c0,.22,0,.31,0,.65a11.11,11.11,0,0,0,.14,1.73,8.73,8.73,0,0,0,.83,2.39,8.57,8.57,0,0,0,1.22,1.74A8.73,8.73,0,0,0,376,135.5a6.28,6.28,0,0,0,.93.51c.3.14.61.26.92.37a8,8,0,0,0,1.65.37c.25,0,.5.06.75.07a3.86,3.86,0,0,0,.59,0c.36,0,.76,0,1.09-.07s.55-.09.82-.15l.41-.08.31-.09.62-.19c.4-.13.69-.25,1-.38s.57-.26.86-.39a26.7,26.7,0,0,0,2.69-1.51,76.54,76.54,0,0,0,7.85-6c2.37-2,4.63-4,6.84-6.07,8.81-8.16,17.06-16.54,25.25-24.78,1-1,2.05-2.06,3-3l.32-.31.28-.25.81-.72,1.61-1.42c2.13-1.87,4.23-3.66,6.37-5.31a63.21,63.21,0,0,1,6.44-4.46c.54-.34,1.08-.62,1.61-.9s1.07-.55,1.59-.8c.24-.1.58-.28.74-.34l.54-.21.27-.1.13,0h0l.15,0a1.86,1.86,0,0,1,1.1,0,.52.52,0,0,1,.32.4,1.1,1.1,0,0,1-.08.54,3.21,3.21,0,0,1-.24.45l-.2.32-.31.56-.5.83c-1.36,2.23-2.93,4.5-4.62,6.76,1.3-1.76,2.54-3.53,3.65-5.29.29-.44.55-.88.82-1.31l.38-.66c.12-.21.28-.47.33-.57l.4-.7a1.56,1.56,0,0,0,.22-.68.48.48,0,0,0-.43-.5,1.81,1.81,0,0,0-.73,0l-.18.06h-.06l-.2.08-.41.17-.43.17-.61.3c-.41.21-.82.37-1.24.62a62.71,62.71,0,0,0-10.06,7c-1.67,1.37-3.32,2.82-5,4.32l-1.27,1.14-.64.57-.44.42-2.31,2.3L420,106.48c-6.55,6.59-13.14,13.14-20.29,19.51-1.8,1.59-3.64,3.16-5.6,4.73-1,.78-2,1.56-3.09,2.34a38.38,38.38,0,0,1-3.69,2.36,18.91,18.91,0,0,1-2.66,1.23c-.24.09-.63.21-.95.31l-.53.14-.66.13c-.24,0-.42.08-.7.11s-.61,0-.91.06a9.44,9.44,0,0,1-2.28-.2,4.91,4.91,0,0,1-.71-.18l-.78-.27a7.44,7.44,0,0,1-1.53-.79,9.66,9.66,0,0,1-1.46-1.16,10.09,10.09,0,0,1-1.1-1.33,9.2,9.2,0,0,1-1.44-3.63,11.64,11.64,0,0,1-.1-1.45,7.26,7.26,0,0,1,.06-1.07c0-.31.08-.62.14-.92s.1-.43.16-.65c.11-.41.24-.85.34-1.1l.34-.86.33-.69a32.76,32.76,0,0,1,2.34-3.95c.75-1.11,1.49-2.13,2.22-3.12,2.94-3.93,5.84-7.52,8.67-11.15s5.58-7.21,8.08-10.82c1.25-1.81,2.44-3.62,3.49-5.41.54-.89,1-1.77,1.47-2.64.22-.43.43-.86.62-1.28.1-.21.19-.41.27-.61l.2-.45a1.26,1.26,0,0,0,.1-.62.52.52,0,0,0-.42-.4,1.15,1.15,0,0,0-.61,0s-.34.14-.63.23-.63.27-1,.47a20.92,20.92,0,0,0-2.22,1.31A64.17,64.17,0,0,0,386,93c-2.14,2.15-6.32,6.85-8.52,9.36l-3.68,3.52q-1.74,1.62-3.44,3.32-3.4,3.38-6.66,6.94c-4.35,4.75-8.53,9.7-12.67,14.74.34-1.83-2.26-.79-2.8-1.76s1-4,9.58-13.74l-1.1-.93c-18.06,18.93-28.08,23.34-12.64,2.26,4.42-5.92,9.44-12.23,15.13-18.65l4.26-4.72,4.23-4.79c2.95-3.32,6.1-6.75,9.63-10.1,1.77-1.68,3.65-3.34,5.71-5a43.56,43.56,0,0,1,7-4.58c.67-.35,1.4-.68,2.14-1,.36-.16.78-.3,1.17-.45a12.42,12.42,0,0,1,1.34-.44,19.12,19.12,0,0,1,6.48-.81c4.36.19,8.61,1.5,11.63,4.25a13.13,13.13,0,0,1,3.46,5,15.39,15.39,0,0,1,1,6,23.09,23.09,0,0,1-1.22,6.33c-.31,1-.81,2.22-1,2.72-.28.67-.58,1.29-.87,1.92a100.75,100.75,0,0,1-7.74,12.81c-3.93,5.61-8.05,10.85-12,16-1.95,2.53-3.91,5.09-5.44,7.36-.35.55-.71,1.11-.92,1.5a3.6,3.6,0,0,0-.2.39v0l-.16-.06-.24-.1-.4-.19c-.53-.24-1.08-.46-1.64-.65l-.84-.28L384,129a9,9,0,0,0-1.36-.34,5.88,5.88,0,0,0-1.81-.2c-.1,0-.28.06-.31.05a.53.53,0,0,0-.16,0l-.08,0,0,0,.43-.25h0a.27.27,0,0,0-.1.06l0,0s.08-.12.09-.2a3.27,3.27,0,0,0,.09-.47c0-.11,0-.16,0-.3a2.84,2.84,0,0,0,0-.41,11.1,11.1,0,0,0-.32-1.94c-.1-.38-.2-.85-.33-1.26s-.29-.77-.46-1.31-.35-1-.55-1.47c-.07-.18-.05-.1-.06-.12h0l0,0c.05,0,.06,0,.15-.07a12,12,0,0,0,1.24-.75c.5-.32,1-.71,1.6-1.12,1.12-.82,2.28-1.74,3.44-2.7,2.34-1.93,4.69-4,7-6.12,4.69-4.24,9.37-8.67,14.06-13.1q4.85-4.56,9.74-9.38l2.48-2.42c.86-.83,1.65-1.6,2.7-2.58l2.77-2.42L426.92,78a97.18,97.18,0,0,1,12.25-9c1.12-.7,2.34-1.35,3.55-2l1.92-.91c.28-.14.69-.31,1.09-.47l1.21-.47.6-.22a5.27,5.27,0,0,1,.67-.22l1.55-.43,1.56-.43c.51-.14,1-.17,1.55-.26a23.52,23.52,0,0,1,6.07-.23,15.87,15.87,0,0,1,2.81.52c.44.13.9.23,1.32.4l1.24.55a11.45,11.45,0,0,1,4.19,3.46c2.21,3.06,2.57,6.72,1.88,10.56a29.24,29.24,0,0,1-1.92,5.83c-.19.48-.45,1-.68,1.43l-.35.71c-.12.24-.24.48-.33.64-.38.71-.82,1.52-1.12,2-1.33,2.25-2.74,4.33-4.18,6.34s-2.95,4-4.35,5.73-2.93,3.69-4.4,5.46c-2.95,3.59-5.92,7.05-8.84,10.44A231.38,231.38,0,0,0,430.27,136c-4.44,6.54-7.8,12.6-9.66,15.11-2.4,3.74-3.14,3.63-3.63,2.64a112.3,112.3,0,0,1,7.54-13.59c2.79-4.41,5.86-8.66,9-12.86,6.34-8.41,13.22-16.51,19.75-25l3-3.87c1-1.31,2-2.64,3-4s1.94-2.76,2.86-4.21a54.15,54.15,0,0,0,2.84-4.9c2.2-4.33,3.64-9,2.38-13.15a8.47,8.47,0,0,0-1.6-2.85,7.93,7.93,0,0,0-1.22-1.1,7,7,0,0,0-1.37-.86A14.46,14.46,0,0,0,456.73,66L455,66a16.16,16.16,0,0,0-1.8.24,16.6,16.6,0,0,0-1.8.32l-1.79.5-.9.25-.74.28-1.48.57c-.94.38-1.7.77-2.55,1.16a64.34,64.34,0,0,0-9,5.54c-2.78,2-5.41,4.13-8,6.26l-3.82,3.26c-.73.66-1.3,1.21-1.92,1.79l-1.78,1.71c1.19-1.11,2.29-2.16,3.65-3.38.43-.39.68-.59,1-.86l.92-.77,1.87-1.56c2.52-2.08,5.12-4.16,7.87-6.14a68.68,68.68,0,0,1,8.87-5.5c.8-.41,1.65-.77,2.47-1.16.45-.19,1-.38,1.44-.57s.93-.37,1.52-.54l1.77-.49.88-.24.89-.15,1.78-.28a17.21,17.21,0,0,1,1.75-.08,20,20,0,0,1,3.4.19l1.6.37c.52.14,1,.36,1.52.54s1,.48,1.42.76a9.58,9.58,0,0,1,1.25,1,6.93,6.93,0,0,1,1.77,2.73,11.75,11.75,0,0,1,.35,6.43,26.62,26.62,0,0,1-2.34,6.66c-.56,1.15-1,2-1.51,2.82s-.9,1.51-1.35,2.25c-.93,1.47-1.89,2.89-2.87,4.28s-2,2.76-3,4.1l-3,4c-6.59,8.4-13.49,16.37-19.87,24.62-1.62,2-3.14,4.14-4.7,6.22s-3,4.21-4.41,6.38-2.75,4.36-4.1,6.55-2.53,4.47-3.6,6.78c-.35-1-.73-2-1.91-1.13l-.45,1c-.27.6-.69,1.4-1,2.35-.73,1.88-1.71,4.1-2.16,5.65-.71,1.46-1.42,2.68-1.95,3.71a24.32,24.32,0,0,1-1.44,2.5c-.87,1.26-1.56,1.75-2.08,1.62-1-.23-1.48-2.94-1.41-6.54C404.41,160.2,404.6,158.15,405,155.92Z"/><path class="cls-1" d="M345,115.34c.59-.77-.33.4-.49.58-.34.41-.68.81-1,1.21-.75.87-1.51,1.72-2.28,2.58-1.52,1.69-3.06,3.37-4.51,5.13-1.6,1.94-3.32,3.94-4.08,6.38-.87,2.84-.52,6.37,1.67,8.53a6.33,6.33,0,0,0,8.82-.35c.2-.2.37-.43.55-.65s1.07-1.35.62-.8.23-.28.31-.37l.7-.86,2.56-3.14c3.4-4.14,6.83-8.26,10.37-12.29,3.83-4.36,7.78-8.62,12-12.61a4,4,0,0,0-5.65-5.65A232.21,232.21,0,0,0,346,123.35c-1.51,1.81-3,3.64-4.51,5.46-.7.87-1.41,1.74-2.12,2.6l-.94,1.16c-.21.27-1.06,1.34-.62.8s-.35.39-.34.39c-.23.27-.46.19.05,0a2.84,2.84,0,0,1,1.3-.27c.77.1.95.61,1.38,1.11.3.35.06,0,0-.11l0,.31,0-.42a1.39,1.39,0,0,1,.11-.92,13.6,13.6,0,0,1,1.27-2s.37-.48.1-.14.17-.2.24-.29c.34-.43.7-.86,1.06-1.28,3-3.49,6.17-6.76,8.95-10.4,1.28-1.66.32-4.54-1.43-5.46-2.11-1.12-4.1-.35-5.46,1.43Z"/><path class="cls-1" d="M352,119.74l-.08-.09.41.95,0-.11.14,1.07a.49.49,0,0,1,0-.24l-.14,1.06,0-.12-.41.95a2.56,2.56,0,0,1,.27-.45l-.62.8c2.44-3,5-6,7.64-8.85a4.22,4.22,0,0,0,1.17-2.83,4.07,4.07,0,0,0-1.17-2.82,4,4,0,0,0-2.82-1.17,4.09,4.09,0,0,0-2.83,1.17c-1.63,1.75-3.21,3.54-4.76,5.36-.75.89-1.5,1.78-2.23,2.69a12.74,12.74,0,0,0-1.49,2,5.12,5.12,0,0,0-.65,2.38,4.14,4.14,0,0,0,.67,2.33,4.38,4.38,0,0,0,2.39,1.84,4.11,4.11,0,0,0,3.07-.4,4,4,0,0,0,1.84-2.39,3.9,3.9,0,0,0-.4-3.08Z"/><path class="cls-1" d="M346.26,134.88c.43-.74.81-1.5,1.23-2.23.2-.35.42-.69.64-1,.39-.61-.4.4-.06.08.13-.13.24-.27.36-.39,1.3-1.26,2.64-2.42,3.82-3.81A47,47,0,0,0,358.4,118a4.06,4.06,0,0,0-1.43-5.46c-1.8-.95-4.48-.57-5.46,1.43a52,52,0,0,1-2.54,4.56c-.48.75-1,1.5-1.51,2.22-.07.1-.57.75-.2.27l-.12.15c-.3.37-.6.73-.91,1.09-1.16,1.32-2.55,2.38-3.72,3.67a25.92,25.92,0,0,0-3.14,4.89,4,4,0,0,0,6.89,4Z"/><path class="cls-1" d="M412.39,139.39a.75.75,0,0,1-.43-.13.81.81,0,0,1-.24-1.11c.9-1.39,22.27-34.22,35.21-44.56a.81.81,0,0,1,1.13.12.8.8,0,0,1-.13,1.12C435.19,105,413.28,138.68,413.06,139A.79.79,0,0,1,412.39,139.39Z"/><path class="cls-1" d="M185.52,148.68l-.57,0a6.22,6.22,0,0,1-5.64-6.75l3.72-41A6.22,6.22,0,1,1,195.42,102l-3.71,41A6.23,6.23,0,0,1,185.52,148.68Z"/><path class="cls-1" d="M301.18,17a23.56,23.56,0,0,1-2.41,3.09A25.32,25.32,0,0,1,295.63,23a33.72,33.72,0,0,1-3.22,2.26c-2.14,1.35-4.22,2.41-6.12,3.44-1,.51-1.85,1-2.72,1.53l-1.32.79-1.3.85c-1.73,1.12-3.38,2.37-5,3.67a73.61,73.61,0,0,0-16.85,19.76c-3.28,5.45-6.14,12-6.25,18.13a17.83,17.83,0,0,0,.45,4.42,12.16,12.16,0,0,0,.61,2,11.51,11.51,0,0,0,.92,1.82,12.06,12.06,0,0,0,5.69,5,12.24,12.24,0,0,1-6.06-6.19c-.16-.34-.27-.7-.42-1s-.21-.69-.3-1.07a16.75,16.75,0,0,1-.4-2.37,20.83,20.83,0,0,1,.16-5,38.56,38.56,0,0,1,3.3-10.45,66.24,66.24,0,0,1,5.64-10,64.43,64.43,0,0,1,15.79-16.09c.77-.52,1.53-1,2.31-1.55s1.56-1,2.35-1.43c1.6-.91,3.18-1.74,5-2.64,3.57-1.83,7.84-3.87,11.66-7.93a20.2,20.2,0,0,1-1.94,2.88,26.17,26.17,0,0,1-2.44,2.61,31.77,31.77,0,0,1-5.69,4.15l-3.34,1.8c-1,.59-2,1.13-3,1.77a65.39,65.39,0,0,0-5.63,4,64.66,64.66,0,0,0-9.73,9.77L266.7,47a79.61,79.61,0,0,0-9.39,17.1,33,33,0,0,0-2.16,8.46,18.48,18.48,0,0,0,0,3.87,15.63,15.63,0,0,0,.33,1.78,9.53,9.53,0,0,0,.54,1.55,10.54,10.54,0,0,0,4.33,4.93,5.46,5.46,0,0,0,5,.37,8.24,8.24,0,0,0,3.86-4.75,12.26,12.26,0,0,0,.33-7.25c-.05.67-.41.33-.66.25l0-.12,0,.12c-.23-.07-.3,0-.22,1.06-.08-1.07,0-1.13.22-1.06a12.16,12.16,0,0,1,.14,3.32,13.85,13.85,0,0,1-.8,3.3A7.41,7.41,0,0,1,265,84a4.35,4.35,0,0,1-4-.18,9.58,9.58,0,0,1-4-4.2,9.91,9.91,0,0,1-.92-3,15.65,15.65,0,0,1-.17-3.59A28.56,28.56,0,0,1,257.77,65a60.31,60.31,0,0,1,4-8.42,64,64,0,0,1,5.35-7.92,62.92,62.92,0,0,0-7.65,12.72c-2.05,4.46-3.33,8.93-3.28,12.74a15.54,15.54,0,0,0,.28,2.71,10.26,10.26,0,0,0,.71,2.23A9.68,9.68,0,0,0,260,82.61a5.41,5.41,0,0,0,3.14,1.24c.11,0,.22,0,.32,0a.76.76,0,0,0,.33,0,1.65,1.65,0,0,1,.32-.06c.1,0,.19-.09.3-.12s.39-.21.61-.28.19-.16.3-.22a1.46,1.46,0,0,0,.32-.25c1.77-1.41,3.25-5.35,2.87-8.56a15.62,15.62,0,0,0-1.61-5.24,32.24,32.24,0,0,0-3.61-5.67c-1.47-1.91-3.18-3.84-5-5.84l-2.84-3.07c-1-1.09-2-2.19-3-3.36a65.41,65.41,0,0,1-5.76-7.68,38.81,38.81,0,0,1-4.48-9.68,30.78,30.78,0,0,1-1-5.12c-.05-.5-.12-1-.14-1.49s0-1,0-1.49a18.75,18.75,0,0,1,.1-2.5,31.7,31.7,0,0,1,1-3.95,36,36,0,0,1,1.5-3.66,33.82,33.82,0,0,1,1.87-3.4,36,36,0,0,1,2.24-3.07,37.5,37.5,0,0,1,2.54-2.8,35.46,35.46,0,0,1,2.88-2.45A27.19,27.19,0,0,1,259.77,0c-.42.65,0,1.08.42,1.5s1,.81,1.06,1.33a1.15,1.15,0,0,1-.34.88,3.53,3.53,0,0,1-.55.53,9.77,9.77,0,0,1-.83.69,42.48,42.48,0,0,0-6.56,5.4l1,.92a15.31,15.31,0,0,1,8.66-4.1,9.27,9.27,0,0,1,3,.19,4.28,4.28,0,0,1,1.7.9,1.13,1.13,0,0,1,.5,1.13,2,2,0,0,1-.32.62,3.29,3.29,0,0,1-.48.63c-.81.83-2.27,1.73-4.19,3.42a18.81,18.81,0,0,0-3.05,3.28,16.08,16.08,0,0,0-2.13,4.14,12.13,12.13,0,0,0-.7,4.4,14.43,14.43,0,0,0,1.07,5c1.33,3.55,4.09,7.41,7.45,11.21,1.66,1.9,3.57,3.89,5.5,6s3.9,4.32,5.8,6.79a40.5,40.5,0,0,1,6.77,12.86,27.14,27.14,0,0,1,.9,4.09c.08.71.16,1.42.21,2.12l0,2.11a28,28,0,0,1-1.43,8.2,25.53,25.53,0,0,1-4.06,7.68A21.17,21.17,0,0,1,271.75,98a19.5,19.5,0,0,1-10,1.77,20.16,20.16,0,0,1-9-3.14,24,24,0,0,1-4.67-3.9,25.17,25.17,0,0,1-3.51-4.77,24,24,0,0,1-2.34-5.52,27.42,27.42,0,0,1-1-5.59,35,35,0,0,1,.86-10.54,52.77,52.77,0,0,1,3.07-9.22,73.9,73.9,0,0,1,21.69-28.52,109.83,109.83,0,0,1,12.28-9.09c2.22-1.36,4.14-2.43,5.61-3.31A31.05,31.05,0,0,1,288,14.36a3.61,3.61,0,0,1,1.94-.58,1.16,1.16,0,0,1,.87.77,30.17,30.17,0,0,1-6.89,4.94,98.56,98.56,0,0,0-8.43,5.13,80.16,80.16,0,0,0-7.88,6.2,83.94,83.94,0,0,0-7,7.13,79.33,79.33,0,0,0-13.23,20.63,45,45,0,0,0-3.59,12.47,25.89,25.89,0,0,0,2,14.23,26.08,26.08,0,0,1-1.85-14,45.68,45.68,0,0,1,3.54-12.41A82.42,82.42,0,0,1,260.58,38a81.58,81.58,0,0,1,7.05-7,77.67,77.67,0,0,1,7.88-6,92.92,92.92,0,0,1,8.4-4.92A32.56,32.56,0,0,0,291,15.25c.25.76.45,1.61,1.45,1.58a15.48,15.48,0,0,0,1.37-1.57,14.5,14.5,0,0,0,1.78-2.94A39.5,39.5,0,0,0,298,8.7c.56-.86,1-1.35,1.55-1.38s1.08.39,1.56,1.23a8.22,8.22,0,0,1,.88,3.59A18.24,18.24,0,0,1,301.18,17Z"/><path class="cls-1" d="M295.07,17.67l.25-.07a7.42,7.42,0,0,0,3.47-3.6,5.16,5.16,0,0,0,.67-1.93,2,2,0,0,0,0-.71.64.64,0,0,0-.06-.12s-.06,0,.08-.16c-.17.22-.1.13-.11.2a.9.9,0,0,1,0,.16,3.08,3.08,0,0,1-.12.88,8.11,8.11,0,0,1-.83,2.18,5.92,5.92,0,0,1-3.3,2.81,1.54,1.54,0,0,1,.44-.94,6.45,6.45,0,0,0,1.79-1.85l.4.23c.24-.62.48-1.2.68-1.8a10.86,10.86,0,0,0,.38-1.42v0h0l.33-.1h0a1.21,1.21,0,0,0,.27-.22.71.71,0,0,0,.19-.35h0c0,.2,0,.05,0,.1h0a.63.63,0,0,0,.06.19,2,2,0,0,0,.24.44l.1.16h0l0,0a2.12,2.12,0,0,0-.18.25,6.87,6.87,0,0,0-.52.95c.11-.06.15.05.2.11v0c0,.06.09.07.2-.08-.11.15-.16.14-.2.08.19-.29.43-.64.59-.85l.15-.18s0,.05-.09-.13-.16-.19-.23-.3a1.74,1.74,0,0,1-.15-.26c0-.06-.07-.14-.1-.19a.88.88,0,0,1-.06-.21h0s0,.1,0-.1h0a1,1,0,0,1-.18.33,1.34,1.34,0,0,1-.28.24h0l-.35.11h0l-.07,0-.17,0s0,.14-.07.4a7.13,7.13,0,0,1-.24.84,6.82,6.82,0,0,1-.81,1.62,6.83,6.83,0,0,0,1-2.58c0-.17,0-.26,0-.26l.3-.06.06,0,.39-.12h0s0,0,.09-.07a1,1,0,0,0,.37-.5h0c0-.1,0,.12,0,.1h0l0,.11a2.62,2.62,0,0,0,.37.67l.19.25.12.14.06.06s0,0,0,0l0,0-.14.18c-.14.17-.32.43-.47.65l-1,1.5a18.84,18.84,0,0,1-2.7,3.4c-.2.19-.6.55-.83.72-1.07.43-2.05.87-3,1.28,0-.31-.34-.63-.43-.95s0-.59.9-.93l-.23-.4a1.93,1.93,0,0,1-2-.58,1.1,1.1,0,0,1,.25-1.48c.57-.53,1.21-1,1.88-1.59a9.72,9.72,0,0,0,1.91-2.51A22.35,22.35,0,0,1,296,9.08a5.06,5.06,0,0,1,2.11-1.69,3.76,3.76,0,0,1,2.34-.16,3.68,3.68,0,0,1,1.84,1.12,4.39,4.39,0,0,1,1,2.06,5.34,5.34,0,0,1,0,1.72,8.73,8.73,0,0,1-.25,1.24c-.09.38-.22.75-.34,1.12a9.63,9.63,0,0,1-2.41,3.79c-.36.39-.8.95-1.26,1.43a2.56,2.56,0,0,1-1.26.85.5.5,0,0,1-.65-.37,11.65,11.65,0,0,0,3.37-3.41,12.82,12.82,0,0,0,1.4-2.61,14.24,14.24,0,0,0,.47-1.44,5.14,5.14,0,0,0,.18-1.89,5,5,0,0,1-.22,1.85c-.14.49-.3,1-.47,1.43a15.5,15.5,0,0,1-1.36,2.66,10.9,10.9,0,0,1-3.46,3.2,1.09,1.09,0,0,0-.38-.59l-.57.36c-1.07-.07-1.15-.94-1.13-1.6C295,18,295,17.84,295.07,17.67Z"/><path class="cls-1" d="M299.16,145.75a47.59,47.59,0,0,0,17.29,3.54,35.72,35.72,0,0,0,17.18-3.91,36.19,36.19,0,0,0,3.81-2.32c.61-.43,1.18-.9,1.77-1.34s1.09-1,1.64-1.53q3.24-3.12,6.35-6.4a95.25,95.25,0,0,0,11.37-14,94.65,94.65,0,0,1-11.08,14.23q-3,3.34-6.23,6.55c-.54.53-1,1.07-1.63,1.59s-1.17,1-1.79,1.42a35.76,35.76,0,0,1-3.84,2.46,36.86,36.86,0,0,1-17.55,4.41,47.89,47.89,0,0,1-9.1-.8,46.37,46.37,0,0,1-8.84-2.48Z"/><path class="cls-1" d="M322.82,145.81l-1.4.24a54.94,54.94,0,0,1-6.67.94,28.4,28.4,0,0,1-7.11-.36,26.8,26.8,0,0,1-3.48-.86c-.57-.18-1.11-.4-1.66-.6s-1-.4-1.47-.63a29.34,29.34,0,0,1-5.94-3.46,28.41,28.41,0,0,1-7.29-8.61h0a36.93,36.93,0,0,1-3.24-9.53,34.54,34.54,0,0,0,2.78,9.76h0l.66,1.22.68,1.12a24.68,24.68,0,0,0,1.57,2.12A23.62,23.62,0,0,0,294,140.7a41.07,41.07,0,0,0,8.08,4.61,33.17,33.17,0,0,0,4.72,1.65,30.17,30.17,0,0,0,5.1.85,42.22,42.22,0,0,0,9.91-.53,8.73,8.73,0,0,1-5.48,3.28,31.48,31.48,0,0,1-9.48-.42,31,31,0,0,1-4.45-1.25l-1-.39c-.36-.13-.59-.24-.89-.37-.57-.23-1.16-.5-1.74-.77.17-.39.49-1.16.65-1.54a24.31,24.31,0,0,1-7.89-4.22,21.61,21.61,0,0,1-3.48-3.54,19.53,19.53,0,0,1-1.43-2.07c-.45-.73-.77-1.37-1.23-2.28h0a43.53,43.53,0,0,1-3.08-12.57,73.26,73.26,0,0,1-.15-13.13c-.33.48-.6.1-.85-.07l0-.11,0,.11c-.21-.16-.4-.14-.6.83.2-1,.39-1,.6-.83a43.77,43.77,0,0,0-.35,13.42,45.84,45.84,0,0,0,1.27,6.42c.29,1.06.63,2.11,1,3.16l.61,1.57.7,1.63h0a25.5,25.5,0,0,0,1.28,2.28,22.41,22.41,0,0,0,1.43,2.07,25.6,25.6,0,0,0,3.41,3.63,35,35,0,0,0,7.57,5,35.45,35.45,0,0,1-7.66-4.8,26.17,26.17,0,0,1-3.53-3.6,23.27,23.27,0,0,1-1.51-2.07c-.49-.74-.84-1.38-1.36-2.31h0l-.72-1.58-.63-1.52c-.39-1-.75-2.05-1.06-3.08a44.22,44.22,0,0,1-1.39-6.27,39.54,39.54,0,0,1,4.48-25.3A51.31,51.31,0,0,1,292,86.41l1.25-1.35,1.28-1.3a57.29,57.29,0,0,0,9.19-5.64c.28,1.09,1.74,2,2.37,3s.47,2.16-2.3,3.88l1.08,1.29c3.12-1.22,6-.76,7.57.52s1.84,3.37.21,5.67c-1.9,2.52-4.45,4.83-6.83,7.4s-4.51,5.44-5.28,8.42a16.18,16.18,0,0,0-.43,1.58l-.18.77-.12.76a24.09,24.09,0,0,0-.32,3c-.11,2.06-.06,4.24,0,6.46a14.23,14.23,0,0,0,.26,2.68c.09.43.19.88.32,1.3a4.71,4.71,0,0,0,.19.64,5.66,5.66,0,0,1,.18.56h0a.62.62,0,0,0,0,.11,1,1,0,0,0,.1.24,3.88,3.88,0,0,0,.22.46,5.34,5.34,0,0,0,.58.88,10.12,10.12,0,0,0,1.87,1.79,65.89,65.89,0,0,0,5.78,3.52,6.22,6.22,0,0,0,3.49,0c1.23-.22,2.41-.54,3.17-.12a2.37,2.37,0,0,1,1.53,2.14,18.52,18.52,0,0,1-6.09.9,13.25,13.25,0,0,1-2.87-.41,14.4,14.4,0,0,1-1.42-.42l-.7-.27-.78-.32a19.88,19.88,0,0,1-5-3.27,9.65,9.65,0,0,1-1.59-1.92,7.37,7.37,0,0,1-.56-1c-.07-.18-.16-.35-.23-.53l-.09-.27c0-.07,0-.13-.05-.19h0a23.49,23.49,0,0,1-.69-3,19.26,19.26,0,0,0,.55,3h0a3.26,3.26,0,0,0,.13.48c.06.18.14.36.21.54a7.51,7.51,0,0,0,.55,1.05,9,9,0,0,0,1.62,1.93,18.58,18.58,0,0,0,5.18,3.14l.77.36.68.3c.47.18.93.38,1.4.51a13.34,13.34,0,0,0,2.87.61,18.58,18.58,0,0,0,6.26-.45,5.06,5.06,0,0,0,.77,2.48l.8-.27c.45-.17,1-.36,1.33-.51,3.63.74,4.34,3.63,3.52,6.3C323.49,144.5,323.2,145.15,322.82,145.81Z"/><path class="cls-1" d="M288.05,125.1c.39,0,.78,0,1.17,0a36.44,36.44,0,0,0,10.6-2.84,82.45,82.45,0,0,0,10.43-5.41,31.44,31.44,0,0,0,7.09-5.48,41.17,41.17,0,0,0,5.35-6.93A47.17,47.17,0,0,1,307.86,118c-5.91,3.46-12.57,5.77-18.86,6a9.41,9.41,0,0,1,3.86-2.63,49.27,49.27,0,0,0,11.51-4.54c.18.29.53.88.7,1.17,4.85-3.5,9.51-6.79,13.29-10.86a25.54,25.54,0,0,0,4.59-6.67,15.05,15.05,0,0,0,1.45-7.55c-.21.34-.47.1-.69,0v0c-.19-.08-.33-.06-.39.53.06-.59.2-.61.39-.53-.24,4.77-2.51,9.48-5.94,13.51a44.2,44.2,0,0,1-13,10.16,46.19,46.19,0,0,0,10.39-7.88,30.08,30.08,0,0,0,6.67-10,20.34,20.34,0,0,0,1.31-5.34l.09-1.34c0-.38,0-.72,0-1.08a3.07,3.07,0,0,1-.07-.42c0-.13,0-.32-.06-.34s-.05-.28-.09-.3a.56.56,0,0,0-.24-.24c0-.06-.09-.07-.14-.09a.3.3,0,0,0-.09,0,.41.41,0,0,1-.19,0,9,9,0,0,0-1.89-.22,19.13,19.13,0,0,0-2.72.16c-.66.06-2.07.31-2.79.47a19.11,19.11,0,0,0-9.34,1.48c.06-.94-1-1.92-1.27-2.87s.26-2,3.63-2.75c-.1-.33-.32-1-.43-1.31-3.6.29-6.44-.23-7.84-1.35s-.79-3.17,2.6-5.19a36.93,36.93,0,0,1,14.94-4.25,32.53,32.53,0,0,1,4.93,0c.43,0,.91.1,1.36.16s.9.12,1.4.24l1.44.33c.53.16,1.07.34,1.6.53a16.29,16.29,0,0,1,9.85,9.67,22.65,22.65,0,0,1,1.3,8.4,33.68,33.68,0,0,1-.9,6.88,32.12,32.12,0,0,1-5.74,11.93A66.65,66.65,0,0,1,320.1,124a51.62,51.62,0,0,1-14.62,7.8c-1.8.69-4.16,1.87-6.41,2.78s-4.37,1.51-5.44,1.28c-1.48-.13-1.69-.84-1.69-1.68A69.13,69.13,0,0,0,309,127.65a68,68,0,0,0,18.42-13.35A83,83,0,0,1,309,127.65a65.17,65.17,0,0,1-17,5.87,2.7,2.7,0,0,0-.46-2.06l-1,.24c-.54.14-1.2.26-1.64.36-3.86-1-3.16-3.63-1.95-5.58Z"/><path class="cls-1" d="M301.92,78.08a40.36,40.36,0,0,0-9.36,7.5c-2.71,2.94-5.36,6.36-5.61,10.5a1.73,1.73,0,0,0,3.46,0c.2-3.3,2.82-6.18,5-8.46a37.13,37.13,0,0,1,8.27-6.55,1.73,1.73,0,0,0-1.74-3Z"/><path class="cls-1" d="M303.82,94.18a45.84,45.84,0,0,1,6.85-3.88l-1,.44a17.76,17.76,0,0,1,3.91-1.16,4.37,4.37,0,0,0,2.59-2,4.33,4.33,0,0,0-1.56-5.92l-1-.44a4.28,4.28,0,0,0-2.3,0c-4.32.73-8.18,3.12-11.79,5.47a4.56,4.56,0,0,0-2,2.59,4.32,4.32,0,0,0,3,5.32,4.36,4.36,0,0,0,3.33-.44Z"/><path class="cls-1" d="M298.28,125.17a2.6,2.6,0,0,1-1.21-4.9c23.19-12.18,25.69-23,25.86-23.87.11-3.34-.45-5.6-1.54-6.2-.92-.51-3.5-.68-10.36,4-.43.3-.76.52-1,.63a2.59,2.59,0,1,1-2.63-4.47c.14-.08.37-.24.68-.45,3.14-2.14,10.51-7.14,15.79-4.22,3,1.66,4.42,5.39,4.2,11.08a.76.76,0,0,1,0,.15c-.05.56-1.62,13.79-28.61,28A2.64,2.64,0,0,1,298.28,125.17Z"/><path class="cls-1" d="M317.24,151.77a27.91,27.91,0,0,1-10.72-2.09l-.09,0a6.16,6.16,0,0,0,6.38-1.24l-8.42-9.09a6.21,6.21,0,0,1,6.87-1.08c3.66,1.52,13.45,3.6,25.43-9.76l9.23,8.27C335.18,148.71,324.93,151.77,317.24,151.77Z"/><path class="cls-1" d="M317.87,145.21A30.76,30.76,0,0,1,303,141.44l-.09-.06a6.2,6.2,0,0,0,6.36-.36l-7-10.24a6.27,6.27,0,0,1,6.84-.12c3.66,2.08,13.66,5.66,27.54-5.87l7.92,9.53C334.36,142.77,325.14,145.21,317.87,145.21Z"/><text/><path class="cls-1" d="M343.58,139.3,382.11,98l11-11.84c2.31-2.47-1.41-6.21-3.73-3.72l-38.53,41.34-11,11.83c-2.31,2.48,1.41,6.22,3.72,3.73Z"/></g></g></svg>