<svg width="480" height="650" viewBox="0 0 516 716" fill="none" xmlns="http://www.w3.org/2000/svg">
<g clip-path="url(#clip0)" filter="url(#filter0_d)">
<path d="M323.477 149.798C322.593 149.788 321.749 149.43 321.127 148.801C320.506 148.173 320.157 147.324 320.157 146.44C320.157 127.35 312.497 118.809 305.092 110.56C298.891 103.624 293.018 97.1274 293.018 85.7392C292.95 76.6292 296.494 67.8637 302.873 61.3639C309.253 54.8641 317.947 51.1601 327.052 51.0637C334.77 51.0224 342.262 53.6676 348.245 58.5463C348.865 59.1248 349.243 59.9164 349.303 60.7622C349.364 61.608 349.102 62.4454 348.571 63.1063C348.04 63.7671 347.279 64.2024 346.44 64.3247C345.602 64.4471 344.748 64.2474 344.05 63.7659C339.276 59.8573 333.293 57.7285 327.125 57.7433C319.794 57.8395 312.801 60.8409 307.679 66.0892C302.557 71.3374 299.725 78.4041 299.803 85.7392C299.803 94.5358 304.362 99.6459 310.126 106.07C317.421 114.392 326.906 124.795 326.906 146.44C326.906 146.887 326.817 147.329 326.643 147.742C326.47 148.154 326.216 148.527 325.897 148.84C325.578 149.153 325.199 149.399 324.783 149.563C324.368 149.728 323.924 149.807 323.477 149.798ZM258.072 132.533C257.182 132.533 256.328 132.179 255.699 131.549C255.069 130.92 254.716 130.065 254.716 129.175C254.716 110.523 247.055 102.164 239.687 94.0978C233.741 87.6007 227.613 80.9211 227.613 69.7155C227.607 63.622 229.237 57.6389 232.333 52.3914C235.429 47.144 239.876 42.825 245.211 39.8857C250.545 36.9464 256.571 35.4948 262.658 35.6825C268.744 35.8703 274.669 37.6906 279.813 40.9531C280.184 41.1927 280.504 41.5032 280.756 41.8668C281.007 42.2304 281.184 42.6399 281.277 43.0721C281.371 43.5042 281.378 43.9505 281.298 44.3854C281.219 44.8204 281.055 45.2354 280.816 45.6069C280.576 45.9784 280.266 46.299 279.903 46.5505C279.539 46.802 279.13 46.9794 278.698 47.0726C278.266 47.1658 277.82 47.173 277.385 47.0937C276.951 47.0145 276.536 46.8503 276.165 46.6107C272.032 43.9894 267.272 42.5267 262.381 42.3755C257.49 42.2243 252.649 43.3901 248.362 45.751C244.076 48.1119 240.501 51.5814 238.013 55.797C235.524 60.0125 234.213 64.8194 234.215 69.7155C234.215 78.2931 238.775 83.2572 244.538 89.5718C251.834 97.7479 261.318 107.822 261.318 129.175C261.319 130.047 260.98 130.885 260.374 131.511C259.768 132.138 258.943 132.504 258.072 132.533ZM189.311 117.641C188.427 117.641 187.579 117.292 186.95 116.67C186.322 116.048 185.964 115.203 185.955 114.319C185.955 95.6674 178.294 87.3087 170.926 79.2421C164.98 72.745 158.852 66.0289 158.852 54.8598C158.859 49.0857 160.332 43.4081 163.132 38.3594C165.932 33.3107 169.968 29.0564 174.861 25.9955C179.754 22.9346 185.344 21.1674 191.106 20.8596C196.868 20.5518 202.614 21.7135 207.805 24.2358C208.596 24.6358 209.199 25.3294 209.485 26.1684C209.771 27.0073 209.718 27.9251 209.337 28.7254C209.146 29.1239 208.878 29.4803 208.548 29.7739C208.218 30.0674 207.833 30.2921 207.415 30.4349C206.998 30.5777 206.556 30.6356 206.115 30.6053C205.675 30.575 205.245 30.4571 204.85 30.2584C200.682 28.2378 196.07 27.3091 191.445 27.5593C186.82 27.8096 182.335 29.2305 178.408 31.689C174.482 34.1475 171.244 37.5631 168.998 41.6157C166.751 45.6684 165.569 50.2254 165.563 54.8598C165.563 63.4374 170.087 68.4015 175.85 74.7161C183.365 82.8922 192.667 92.9663 192.667 114.319C192.657 115.203 192.299 116.048 191.671 116.67C191.043 117.292 190.194 117.641 189.311 117.641Z" fill="#B9BCBC"/>
<path d="M260.99 234.515C260.354 234.513 259.731 234.33 259.195 233.988C258.659 233.645 258.232 233.157 257.962 232.581C257.772 232.183 257.662 231.752 257.64 231.312C257.618 230.872 257.683 230.432 257.833 230.018C257.982 229.604 258.212 229.223 258.51 228.898C258.808 228.574 259.167 228.312 259.567 228.128C300.568 209.038 317.64 202.103 322.71 202.103C327.781 202.103 345.4 209.22 383.264 226.668C384.065 227.048 384.685 227.727 384.992 228.559C385.298 229.392 385.268 230.311 384.905 231.121C384.725 231.524 384.465 231.887 384.142 232.189C383.82 232.491 383.44 232.725 383.025 232.878C382.611 233.031 382.17 233.1 381.729 233.08C381.287 233.06 380.854 232.953 380.455 232.763C345.837 216.703 326.358 208.673 322.71 208.673C317.385 208.673 276.128 227.872 262.558 234.223C262.066 234.445 261.528 234.546 260.99 234.515ZM248.697 219.915C247.942 219.917 247.208 219.665 246.614 219.199C246.02 218.732 245.601 218.079 245.424 217.345C245.247 216.611 245.322 215.838 245.638 215.152C245.954 214.466 246.492 213.906 247.165 213.564C267.154 203.563 273.939 199.256 276.128 197.394C283.205 191.372 286.524 178.158 287.582 172.793C288.002 170.691 288.843 168.696 290.052 166.927C291.262 165.159 292.817 163.653 294.622 162.5C302.99 157.23 312.677 154.433 322.564 154.433C332.452 154.433 342.139 157.23 350.507 162.5C352.324 163.665 353.886 165.188 355.096 166.976C356.306 168.765 357.14 170.781 357.547 172.902C358.605 178.268 361.924 191.481 369.001 197.504C376.602 202.631 384.619 207.112 392.967 210.899C393.765 211.292 394.374 211.986 394.661 212.827C394.948 213.669 394.89 214.59 394.499 215.389C394.099 216.18 393.406 216.784 392.568 217.07C391.729 217.356 390.812 217.303 390.012 216.922C381.039 213.029 372.484 208.235 364.478 202.614C356.124 195.496 352.294 181.772 350.798 174.216C350.548 172.993 350.054 171.832 349.346 170.804C348.637 169.776 347.73 168.9 346.676 168.23C339.391 163.676 330.973 161.261 322.382 161.261C313.791 161.261 305.374 163.676 298.088 168.23C297.034 168.9 296.127 169.776 295.419 170.804C294.71 171.832 294.216 172.993 293.966 174.216C292.47 181.772 288.676 195.496 280.287 202.614C276.639 205.716 266.753 211.301 250.01 219.66C249.597 219.846 249.15 219.945 248.697 219.952V219.915ZM196.57 215.462C195.801 215.482 195.049 215.237 194.439 214.769C193.829 214.3 193.399 213.637 193.219 212.889C193.04 212.141 193.123 211.354 193.454 210.66C193.785 209.965 194.344 209.406 195.037 209.074C244.283 186.152 254.497 183.196 257.926 183.196C262.603 184.144 267.191 185.487 271.641 187.211C272.483 187.506 273.173 188.124 273.559 188.928C273.946 189.732 273.997 190.657 273.702 191.499C273.407 192.342 272.79 193.032 271.986 193.419C271.182 193.806 270.258 193.857 269.416 193.562C265.62 192.131 261.747 190.913 257.816 189.912C255.81 189.912 245.085 193.197 197.919 215.134C197.504 215.354 197.04 215.467 196.57 215.462ZM184.276 201.154C183.655 201.147 183.048 200.97 182.52 200.642C181.993 200.314 181.566 199.847 181.285 199.292C180.892 198.498 180.828 197.58 181.108 196.739C181.389 195.898 181.99 195.202 182.781 194.803C192.828 190.232 202.479 184.835 211.635 178.67C218.712 172.647 221.995 159.47 223.089 154.068C223.5 151.953 224.336 149.944 225.546 148.162C226.757 146.381 228.316 144.863 230.129 143.702C238.465 138.36 248.173 135.558 258.071 135.635C268.091 135.362 277.942 138.248 286.232 143.885C289.396 146.286 292.24 149.083 294.695 152.207C294.994 152.556 295.218 152.962 295.354 153.402C295.489 153.841 295.533 154.303 295.482 154.76C295.432 155.217 295.288 155.658 295.06 156.058C294.832 156.457 294.525 156.805 294.157 157.08C293.79 157.355 293.369 157.552 292.922 157.658C292.475 157.765 292.011 157.778 291.559 157.698C291.107 157.617 290.676 157.445 290.293 157.191C289.91 156.937 289.583 156.607 289.333 156.222C287.279 153.63 284.915 151.301 282.293 149.287C275.134 144.582 266.706 142.187 258.144 142.424C249.533 142.36 241.086 144.78 233.814 149.396C232.77 150.073 231.871 150.951 231.17 151.978C230.468 153.006 229.978 154.163 229.728 155.382C228.123 162.938 224.22 176.552 215.976 183.853C212.328 187.028 202.625 192.467 185.772 200.862C185.305 201.081 184.791 201.181 184.276 201.154ZM129.924 200.679C129.284 200.675 128.658 200.492 128.116 200.15C127.574 199.808 127.139 199.321 126.86 198.745C126.488 197.936 126.452 197.013 126.76 196.178C127.068 195.343 127.694 194.665 128.502 194.292C166.731 176.552 182.744 169.946 187.742 169.946C192.946 171.088 198.055 172.626 203.026 174.545C203.461 174.677 203.865 174.896 204.213 175.189C204.561 175.482 204.845 175.843 205.05 176.249C205.254 176.656 205.374 177.1 205.401 177.554C205.429 178.008 205.364 178.463 205.211 178.891C205.058 179.32 204.819 179.712 204.509 180.045C204.199 180.379 203.825 180.645 203.409 180.829C202.994 181.013 202.545 181.111 202.09 181.116C201.635 181.121 201.184 181.034 200.764 180.86C195.658 179.035 188.763 176.808 187.523 176.662C182.562 176.662 144.114 194.511 131.456 200.351C130.982 200.59 130.455 200.703 129.924 200.679ZM117.923 185.824C117.265 185.835 116.619 185.654 116.062 185.304C115.505 184.954 115.062 184.45 114.786 183.853C114.586 183.46 114.466 183.032 114.433 182.593C114.401 182.154 114.455 181.712 114.595 181.295C114.734 180.877 114.955 180.491 115.244 180.159C115.534 179.828 115.886 179.557 116.281 179.363C124.935 175.462 133.255 170.859 141.159 165.602C148.236 159.58 151.519 146.367 152.614 141.001C153.034 138.899 153.874 136.904 155.084 135.135C156.294 133.367 157.848 131.861 159.654 130.708C168.022 125.438 177.708 122.641 187.596 122.641C197.484 122.641 207.17 125.438 215.538 130.708C219.061 133.005 222.028 136.06 224.22 139.65C224.656 140.421 224.771 141.333 224.538 142.187C224.306 143.042 223.746 143.77 222.98 144.213C222.204 144.651 221.287 144.767 220.427 144.535C219.567 144.302 218.833 143.741 218.383 142.972C216.765 140.233 214.545 137.899 211.89 136.146C204.605 131.592 196.187 129.177 187.596 129.177C179.005 129.177 170.587 131.592 163.302 136.146C162.248 136.816 161.341 137.692 160.632 138.72C159.924 139.749 159.43 140.909 159.18 142.132C157.684 149.688 153.89 163.412 145.5 170.53C137.274 176.263 128.559 181.259 119.455 185.459C118.981 185.7 118.455 185.825 117.923 185.824ZM469.972 137.168C461.108 137.168 453.922 128.481 453.922 117.75C453.922 107.019 461.217 98.3319 469.972 98.3319C478.727 98.3319 485.986 107.055 485.986 117.75C485.986 128.445 478.8 137.168 469.972 137.168ZM469.972 105.011C464.792 105.011 460.634 110.742 460.634 117.75C460.634 124.758 464.792 130.489 469.972 130.489C475.152 130.489 479.31 124.758 479.31 117.75C479.31 110.742 475.115 105.011 469.972 105.011ZM449.07 132.022H448.268L308.119 97.3098C307.322 97.0402 306.655 96.4807 306.251 95.7423C305.846 95.0038 305.734 94.1402 305.936 93.3228C306.138 92.5053 306.639 91.7936 307.341 91.3287C308.043 90.8638 308.893 90.6796 309.724 90.8128L449.873 125.452C450.658 125.657 451.343 126.141 451.799 126.813C452.256 127.485 452.453 128.299 452.355 129.106C452.257 129.912 451.87 130.656 451.266 131.199C450.662 131.742 449.882 132.047 449.07 132.058V132.022ZM456.366 101.69C456.099 101.726 455.83 101.726 455.563 101.69L326.139 69.6425C325.711 69.5396 325.306 69.3532 324.949 69.0938C324.592 68.8345 324.29 68.5074 324.06 68.1311C323.83 67.7548 323.676 67.3368 323.607 66.9009C323.538 66.4651 323.556 66.0199 323.659 65.5909C323.883 64.7282 324.437 63.9882 325.201 63.5306C325.965 63.0731 326.879 62.9347 327.744 63.1454L457.314 95.0833C458.176 95.3072 458.916 95.8615 459.373 96.6263C459.83 97.3912 459.969 98.3053 459.758 99.1714C459.578 99.8949 459.16 100.537 458.571 100.994C457.982 101.45 457.257 101.696 456.512 101.69H456.366ZM285.904 91.7983H285.102L242.97 81.2861C242.172 81.0165 241.505 80.457 241.101 79.7185C240.697 78.9801 240.584 78.1165 240.786 77.299C240.988 76.4816 241.49 75.7698 242.191 75.3049C242.893 74.8401 243.744 74.6559 244.575 74.789L286.707 85.3012C287.492 85.5067 288.177 85.9902 288.633 86.6621C289.09 87.334 289.287 88.1487 289.189 88.9552C289.091 89.7618 288.704 90.5054 288.1 91.0483C287.496 91.5912 286.716 91.8966 285.904 91.9078V91.7983ZM218.967 75.2635H218.165L174.391 64.3134C173.96 64.2155 173.554 64.0316 173.196 63.7729C172.838 63.5142 172.536 63.1859 172.308 62.8076C172.08 62.4294 171.93 62.009 171.868 61.5715C171.806 61.1341 171.833 60.6887 171.947 60.2618C172.162 59.4019 172.709 58.6622 173.468 58.2041C174.226 57.7459 175.135 57.6065 175.996 57.8163L219.77 68.7664C220.555 68.9719 221.24 69.4554 221.696 70.1273C222.153 70.7992 222.35 71.614 222.252 72.4205C222.154 73.227 221.767 73.9707 221.163 74.5136C220.559 75.0565 219.779 75.3618 218.967 75.373V75.2635ZM296.373 62.2329H295.571L259.421 53.3267C258.992 53.2213 258.589 53.0324 258.233 52.7708C257.877 52.5092 257.576 52.18 257.348 51.8021C257.119 51.4242 256.967 51.0049 256.9 50.5682C256.834 50.1315 256.853 49.6859 256.959 49.2569C257.064 48.8279 257.253 48.4239 257.514 48.0679C257.776 47.7119 258.105 47.4109 258.483 47.1821C258.86 46.9534 259.279 46.8013 259.716 46.7345C260.152 46.6678 260.597 46.6877 261.026 46.7931L297.176 55.5898C297.611 55.7002 298.019 55.8959 298.378 56.1654C298.737 56.4349 299.038 56.7729 299.266 57.1599C299.493 57.5469 299.641 57.9752 299.702 58.4199C299.763 58.8646 299.735 59.317 299.62 59.7508C299.427 60.4644 299.005 61.0944 298.418 61.5432C297.831 61.9919 297.112 62.2343 296.373 62.2329ZM150.753 58.5828C150.487 58.6189 150.217 58.6189 149.951 58.5828L90.7834 43.9826C90.0903 43.7636 79.6211 40.3325 79.6211 24.3818C79.6211 8.43109 90.2727 5.21905 90.7104 5.00004C91.2621 4.86957 91.8367 4.86957 92.3884 5.00004L164.396 22.8488C164.825 22.9516 165.229 23.1381 165.586 23.3974C165.943 23.6567 166.245 23.9839 166.475 24.3602C166.706 24.7364 166.86 25.1545 166.929 25.5903C166.997 26.0262 166.98 26.4713 166.876 26.9004C166.661 27.7698 166.11 28.5186 165.345 28.9835C164.579 29.4485 163.661 29.5918 162.791 29.3824L91.8412 11.8621C90.2727 12.7017 86.333 15.5122 86.333 24.1628C86.333 34.8575 92.4249 37.23 92.6802 37.3395L151.556 51.9397C152.341 52.1452 153.026 52.6287 153.482 53.3006C153.939 53.9725 154.136 54.7872 154.038 55.5938C153.94 56.4003 153.553 57.1439 152.949 57.6868C152.345 58.2297 151.565 58.5351 150.753 58.5463V58.5828ZM231.005 46.2091H230.202L196.314 37.6315C195.885 37.5286 195.481 37.3422 195.124 37.0829C194.767 36.8236 194.465 36.4964 194.235 36.1201C194.004 35.7439 193.85 35.3258 193.782 34.89C193.713 34.4541 193.73 34.009 193.834 33.5799C194.057 32.7172 194.611 31.9772 195.376 31.5197C196.14 31.0621 197.054 30.9237 197.919 31.1344L231.734 39.4565C232.163 39.5594 232.568 39.7458 232.924 40.0051C233.281 40.2645 233.583 40.5916 233.814 40.9679C234.044 41.3442 234.198 41.7622 234.267 42.1981C234.336 42.6339 234.318 43.0791 234.215 43.5081C234.029 44.2382 233.605 44.8855 233.011 45.3481C232.416 45.8107 231.685 46.0622 230.932 46.0631L231.005 46.2091Z" fill="#FF5E62"/>
<path d="M142.072 325H141.78C140.896 324.917 140.08 324.486 139.512 323.801C138.945 323.117 138.672 322.236 138.753 321.35C138.972 318.905 144.516 260.504 169.504 246.816C193.105 234.004 235.784 214.331 236.222 213.966C237.078 213.63 238.029 213.63 238.885 213.966C239.31 214.135 239.695 214.391 240.016 214.718C240.336 215.045 240.584 215.435 240.745 215.864C241.438 217.579 258.109 258.314 322.091 258.314C386.074 258.314 398.695 216.229 399.133 214.513C399.283 214.048 399.525 213.617 399.844 213.247C400.164 212.877 400.555 212.575 400.993 212.36C401.436 212.143 401.923 212.031 402.416 212.031C402.909 212.031 403.395 212.143 403.838 212.36C404.276 212.36 447.612 233.931 471.067 246.707C496.164 260.321 501.672 318.759 501.891 321.241C501.936 321.68 501.894 322.124 501.765 322.547C501.637 322.969 501.425 323.362 501.143 323.702C500.862 324.042 500.515 324.322 500.123 324.526C499.732 324.73 499.303 324.854 498.864 324.891C497.981 324.962 497.105 324.685 496.423 324.119C495.741 323.553 495.308 322.743 495.216 321.861C495.216 321.277 489.817 264.482 467.894 252.51C448.196 241.852 414.745 225.171 404.167 219.915C399.206 231.34 379.69 264.957 322.091 264.957C263.252 264.957 241.511 232.106 236.003 221.448C225.826 226.157 192.485 241.779 172.714 252.51C150.827 264.446 145.392 321.204 145.355 321.861C145.301 322.701 144.933 323.489 144.325 324.071C143.717 324.652 142.913 324.984 142.072 325Z" fill="#B5EBF7"/>
<path d="M78.308 305.655H77.9797C77.5397 305.618 77.1115 305.494 76.72 305.29C76.3286 305.086 75.9817 304.806 75.6998 304.466C75.4178 304.126 75.2065 303.733 75.0781 303.311C74.9497 302.888 74.9068 302.444 74.952 302.005C75.1709 299.523 80.7155 241.049 105.776 227.434C129.377 214.623 172.02 194.803 172.421 194.803C173.277 194.467 174.228 194.467 175.084 194.803C175.509 194.972 175.894 195.228 176.215 195.555C176.535 195.882 176.784 196.272 176.944 196.701C180.873 205.076 186.632 212.461 193.797 218.309C194.133 218.597 194.408 218.948 194.608 219.342C194.808 219.736 194.928 220.165 194.962 220.606C194.996 221.047 194.942 221.49 194.805 221.91C194.668 222.33 194.449 222.719 194.162 223.054C193.875 223.39 193.524 223.665 193.13 223.865C192.736 224.065 192.307 224.185 191.867 224.219C191.426 224.253 190.983 224.2 190.564 224.063C190.144 223.925 189.755 223.707 189.42 223.419C182.391 217.461 176.549 210.229 172.202 202.103C162.207 206.957 128.684 222.58 108.913 233.347C87.0262 245.246 81.591 302.041 81.5545 302.698C81.4658 303.502 81.0871 304.246 80.4894 304.79C79.8917 305.334 79.116 305.642 78.308 305.655Z" fill="#B5EBF7"/>
<path d="M12.356 291.493H12.0642C11.1766 291.409 10.3575 290.979 9.7841 290.296C9.21069 289.613 8.92903 288.732 9.00005 287.843C9.25539 285.36 14.7636 226.923 39.8604 213.308C63.4617 200.497 106.141 180.823 106.579 180.458C107.424 180.132 108.36 180.132 109.205 180.458C109.638 180.621 110.031 180.874 110.359 181.202C110.686 181.529 110.939 181.923 111.102 182.356C115.034 190.719 120.779 198.1 127.918 203.964C128.254 204.251 128.531 204.602 128.731 204.996C128.931 205.39 129.052 205.82 129.086 206.261C129.12 206.702 129.066 207.145 128.928 207.565C128.791 207.985 128.571 208.374 128.283 208.709C127.999 209.045 127.652 209.32 127.261 209.52C126.871 209.72 126.444 209.841 126.006 209.875C125.569 209.908 125.129 209.855 124.712 209.718C124.295 209.581 123.909 209.362 123.577 209.074C116.562 203.189 110.72 196.032 106.36 187.977C96.2189 192.722 62.8416 208.344 43.034 219.076C21.1472 231.011 15.7485 287.77 15.6755 288.427C15.6111 289.262 15.2331 290.043 14.6174 290.612C14.0017 291.18 13.1939 291.495 12.356 291.493Z" fill="#B5EBF7"/>
<path d="M78.3075 303.647C78.1331 303.638 77.9623 303.594 77.8057 303.516C77.6491 303.439 77.5101 303.33 77.3973 303.197C77.2845 303.063 77.2002 302.908 77.1497 302.741C77.0992 302.573 77.0836 302.397 77.1038 302.224C77.3226 299.778 82.7579 242.363 106.906 229.223C130.435 216.448 173.077 196.81 173.479 196.591C173.648 196.52 173.831 196.483 174.015 196.483C174.199 196.483 174.381 196.52 174.551 196.592C174.721 196.663 174.875 196.768 175.004 196.899C175.133 197.031 175.234 197.187 175.303 197.358C179.358 206.034 185.304 213.692 192.703 219.769C192.944 220.026 193.078 220.366 193.078 220.718C193.078 221.071 192.944 221.41 192.703 221.667C192.58 221.795 192.433 221.897 192.27 221.967C192.107 222.036 191.931 222.072 191.754 222.072C191.577 222.072 191.401 222.036 191.238 221.967C191.075 221.897 190.928 221.795 190.806 221.667C183.445 215.619 177.431 208.097 173.15 199.584C165.855 202.942 129.158 220.061 107.964 231.559C85.056 243.969 79.6207 301.822 79.5478 302.406C79.5158 302.724 79.3748 303.022 79.1488 303.248C78.9228 303.474 78.6256 303.615 78.3075 303.647Z" fill="#B5EBF7"/>
<path d="M12.3555 289.485C12.1763 289.476 12.0007 289.431 11.8398 289.351C11.6788 289.272 11.5358 289.161 11.4196 289.024C11.3033 288.887 11.2164 288.728 11.164 288.556C11.1117 288.384 11.0951 288.204 11.1152 288.025C11.3341 285.616 16.7693 228.164 40.9178 215.024C64.4825 202.249 107.089 182.612 107.527 182.393C107.694 182.321 107.874 182.285 108.056 182.285C108.237 182.285 108.417 182.321 108.584 182.393C108.754 182.461 108.906 182.564 109.032 182.697C109.158 182.829 109.254 182.987 109.314 183.159C113.331 191.881 119.237 199.599 126.605 205.753C126.816 205.996 126.934 206.306 126.937 206.628C126.94 206.95 126.828 207.262 126.621 207.509C126.414 207.755 126.126 207.92 125.809 207.973C125.491 208.026 125.166 207.963 124.89 207.797C117.538 201.707 111.537 194.148 107.271 185.605C99.9756 188.926 63.4976 206.045 42.0851 217.579C19.2134 229.843 13.7417 287.697 13.6687 288.281C13.6498 288.613 13.502 288.925 13.2567 289.15C13.0115 289.375 12.6881 289.495 12.3555 289.485Z" fill="#B5EBF7"/>
<path d="M498.644 322.992C498.31 322.994 497.987 322.872 497.738 322.65C497.488 322.427 497.331 322.12 497.294 321.788C497.294 321.204 491.786 263.387 468.915 250.94C447.757 239.479 410.769 221.083 403.254 217.323C400.19 225.427 382.754 263.132 322.2 263.132C261.647 263.132 240.599 226.412 237.024 218.966C229.728 222.288 193.032 239.406 171.838 250.94C148.93 263.351 143.458 321.204 143.421 321.788C143.376 322.136 143.2 322.454 142.929 322.678C142.658 322.902 142.313 323.014 141.962 322.992C141.786 322.979 141.615 322.93 141.458 322.848C141.301 322.767 141.163 322.655 141.05 322.519C140.938 322.382 140.854 322.225 140.804 322.055C140.754 321.886 140.738 321.708 140.759 321.532C140.977 319.123 146.413 261.672 170.561 248.531C194.089 235.756 236.732 216.119 237.133 215.9C237.463 215.802 237.817 215.83 238.127 215.978C238.437 216.126 238.681 216.385 238.811 216.703C238.811 217.141 256.54 260.504 322.018 260.504C387.496 260.504 400.883 215.608 400.993 215.17C401.051 214.978 401.15 214.801 401.282 214.65C401.414 214.499 401.576 214.378 401.759 214.294C401.936 214.212 402.129 214.17 402.324 214.17C402.519 214.17 402.712 214.212 402.889 214.294C403.327 214.513 446.663 235.829 470.045 248.604C494.194 261.708 499.629 319.16 499.848 321.605C499.863 321.783 499.843 321.962 499.788 322.131C499.734 322.301 499.647 322.458 499.531 322.594C499.416 322.729 499.275 322.841 499.117 322.922C498.958 323.003 498.785 323.052 498.608 323.065L498.644 322.992Z" fill="#B5EBF7"/>
<path d="M323.477 147.79C323.125 147.781 322.791 147.634 322.546 147.382C322.301 147.13 322.163 146.791 322.164 146.44C322.164 126.583 313.883 117.239 306.588 109.209C300.824 102.602 295.024 96.2513 295.024 85.7392C294.961 81.4752 295.741 77.2409 297.319 73.2794C298.896 69.3179 301.24 65.7072 304.216 62.6548C307.192 59.6023 310.741 57.1682 314.66 55.4923C318.579 53.8163 322.79 52.9315 327.052 52.8887C334.291 52.8768 341.313 55.365 346.932 59.9333C347.185 60.1675 347.339 60.4897 347.362 60.8336C347.385 61.1776 347.276 61.5175 347.057 61.7835C346.837 62.0495 346.525 62.2215 346.183 62.2644C345.841 62.3072 345.496 62.2176 345.218 62.0138C340.076 57.8 333.625 55.5149 326.979 55.5532C319.142 55.6877 311.676 58.9174 306.209 64.538C300.742 70.1586 297.718 77.714 297.796 85.5567C297.796 95.1198 302.83 100.741 308.74 107.238C316.364 115.743 325.009 125.488 325.009 146.257C325.04 146.465 325.021 146.678 324.955 146.878C324.889 147.078 324.777 147.26 324.628 147.409C324.479 147.558 324.297 147.67 324.098 147.736C323.898 147.802 323.685 147.821 323.477 147.79Z" fill="white"/>
<path d="M258.071 130.525C257.894 130.525 257.719 130.49 257.555 130.423C257.391 130.355 257.242 130.255 257.117 130.13C256.992 130.004 256.892 129.855 256.825 129.692C256.757 129.528 256.722 129.352 256.722 129.175C256.722 109.757 248.441 100.704 241.146 92.6743C235.2 86.1772 229.619 80.0451 229.619 69.6425C229.619 63.8903 231.167 58.2442 234.099 53.2967C237.032 48.3492 241.241 44.2827 246.285 41.5238C251.329 38.7649 257.023 37.4154 262.768 37.6168C268.513 37.8182 274.098 39.5632 278.937 42.6686C279.084 42.7614 279.211 42.8824 279.311 43.0246C279.41 43.1669 279.481 43.3275 279.518 43.4973C279.556 43.667 279.559 43.8425 279.528 44.0135C279.497 44.1845 279.433 44.3477 279.338 44.4936C279.248 44.6486 279.128 44.7836 278.984 44.8904C278.841 44.9971 278.677 45.0733 278.502 45.1143C278.328 45.1554 278.147 45.1603 277.971 45.1289C277.795 45.0975 277.627 45.0303 277.478 44.9316C272.79 41.9477 267.348 40.3648 261.792 40.369C254.067 40.4169 246.672 43.5087 241.21 48.9745C235.748 54.4403 232.658 61.8398 232.61 69.5695C232.61 78.9501 237.644 84.4252 243.553 90.7763C251.177 99.0984 259.822 108.552 259.822 129.029C259.859 129.257 259.836 129.491 259.756 129.708C259.676 129.925 259.542 130.118 259.366 130.268C259.19 130.418 258.979 130.521 258.752 130.566C258.526 130.611 258.291 130.597 258.071 130.525Z" fill="white"/>
<path d="M189.31 115.633C188.959 115.633 188.621 115.496 188.369 115.25C188.116 115.005 187.97 114.671 187.961 114.319C187.961 94.8643 179.717 85.8486 172.421 77.8185C166.475 71.3579 160.857 65.2259 160.857 54.8232C160.867 46.3267 164.245 38.1809 170.249 32.1729C176.253 26.1649 184.394 22.7854 192.885 22.7758C197.742 22.7615 202.537 23.8734 206.893 26.0243C207.053 26.0984 207.197 26.2041 207.315 26.3351C207.434 26.466 207.525 26.6196 207.583 26.7866C207.641 26.9536 207.664 27.1305 207.652 27.3069C207.64 27.4832 207.593 27.6553 207.513 27.8128C207.356 28.1301 207.08 28.3729 206.746 28.4889C206.412 28.605 206.045 28.585 205.725 28.4333C201.73 26.4726 197.335 25.4608 192.885 25.4768C185.145 25.4768 177.723 28.5533 172.25 34.0294C166.777 39.5055 163.703 46.9328 163.703 54.6772C163.703 64.0213 168.737 69.5329 174.646 75.884C182.015 84.3886 190.66 93.8423 190.66 114.502C190.608 114.821 190.443 115.11 190.195 115.318C189.947 115.525 189.633 115.637 189.31 115.633Z" fill="white"/>
<path d="M248.661 217.944C248.417 217.947 248.177 217.879 247.97 217.75C247.763 217.621 247.598 217.435 247.493 217.214C247.337 216.893 247.311 216.524 247.419 216.184C247.528 215.845 247.764 215.56 248.077 215.389C268.249 205.315 275.18 200.789 277.259 198.964C284.555 192.759 287.984 180.166 289.37 173.194C289.745 171.361 290.483 169.622 291.542 168.079C292.601 166.537 293.959 165.223 295.535 164.215C303.579 159.161 312.884 156.48 322.383 156.48C331.881 156.48 341.186 159.161 349.23 164.215C350.833 165.208 352.219 166.516 353.303 168.059C354.388 169.602 355.149 171.349 355.541 173.194C356.927 180.166 360.393 192.759 367.652 198.964C375.319 204.283 383.479 208.855 392.019 212.615C392.191 212.685 392.347 212.791 392.476 212.924C392.605 213.057 392.706 213.216 392.771 213.39C392.837 213.564 392.865 213.75 392.856 213.935C392.846 214.121 392.798 214.303 392.715 214.469C392.632 214.635 392.516 214.783 392.373 214.902C392.23 215.021 392.065 215.109 391.886 215.161C391.708 215.213 391.521 215.228 391.336 215.205C391.152 215.181 390.975 215.119 390.815 215.024C382.073 211.177 373.728 206.482 365.901 201.008C357.985 194.292 354.337 181.042 352.878 173.742C352.586 172.249 351.992 170.831 351.133 169.576C350.273 168.32 349.167 167.254 347.881 166.442C340.271 161.671 331.472 159.141 322.492 159.141C313.512 159.141 304.713 161.671 297.103 166.442C295.817 167.254 294.711 168.32 293.851 169.576C292.992 170.831 292.398 172.249 292.106 173.742C290.647 181.042 286.999 194.255 279.083 201.008C275.435 203.964 265.586 209.585 249.208 217.798C249.039 217.89 248.852 217.94 248.661 217.944Z" fill="#FF5E62"/>
<path d="M260.991 232.508C260.733 232.507 260.482 232.43 260.268 232.287C260.054 232.144 259.887 231.942 259.787 231.705C259.708 231.548 259.663 231.376 259.654 231.201C259.645 231.025 259.672 230.85 259.734 230.686C259.795 230.521 259.89 230.371 260.012 230.245C260.134 230.119 260.281 230.02 260.443 229.953C300.095 211.483 318.079 203.964 322.456 203.964C326.833 203.964 345.072 211.264 382.17 228.383C382.328 228.457 382.47 228.562 382.588 228.691C382.706 228.821 382.797 228.972 382.856 229.136C382.915 229.3 382.942 229.475 382.933 229.649C382.925 229.824 382.883 229.995 382.809 230.153C382.734 230.312 382.63 230.454 382.501 230.571C382.372 230.689 382.221 230.78 382.056 230.839C381.892 230.899 381.718 230.925 381.543 230.917C381.369 230.909 381.198 230.867 381.04 230.792C366.813 224.186 328.767 206.665 322.711 206.665C316.656 206.665 278.245 224.66 261.72 232.216C261.503 232.368 261.253 232.468 260.991 232.508Z" fill="#FF5E62"/>
<path d="M196.569 213.454C196.271 213.441 195.986 213.329 195.758 213.136C195.53 212.943 195.373 212.68 195.31 212.388C195.248 212.096 195.284 211.792 195.412 211.522C195.541 211.253 195.756 211.034 196.022 210.899C245.45 187.868 255.117 185.349 258.035 185.349C262.443 186.37 266.781 187.674 271.021 189.255C271.189 189.312 271.343 189.402 271.476 189.519C271.609 189.637 271.718 189.779 271.796 189.938C271.874 190.098 271.919 190.271 271.93 190.448C271.941 190.625 271.917 190.802 271.86 190.97C271.803 191.138 271.713 191.293 271.595 191.426C271.478 191.559 271.336 191.667 271.177 191.745C271.017 191.823 270.844 191.869 270.667 191.88C270.491 191.891 270.313 191.867 270.146 191.81C266.182 190.36 262.139 189.141 258.035 188.16C255.153 188.16 242.24 192.576 197.117 213.71C196.913 213.68 196.723 213.591 196.569 213.454Z" fill="#FF5E62"/>
<path d="M184.277 199.146C184.027 199.136 183.784 199.06 183.572 198.925C183.361 198.79 183.189 198.602 183.073 198.38C182.922 198.06 182.902 197.693 183.018 197.359C183.134 197.024 183.377 196.748 183.694 196.591C199.963 188.452 209.52 183.123 212.876 180.202C220.172 173.997 223.819 161.405 225.023 154.652C225.389 152.811 226.124 151.063 227.184 149.513C228.243 147.964 229.605 146.645 231.188 145.637C239.208 140.529 248.529 137.843 258.036 137.898C267.583 137.664 276.97 140.379 284.92 145.673C287.932 147.96 290.641 150.622 292.982 153.594C293.191 153.882 293.281 154.24 293.234 154.594C293.186 154.947 293.005 155.269 292.726 155.492C292.431 155.689 292.072 155.768 291.721 155.714C291.37 155.66 291.052 155.476 290.829 155.2C288.708 152.474 286.258 150.022 283.534 147.9C276.045 142.923 267.206 140.374 258.218 140.599C249.179 140.502 240.307 143.039 232.684 147.9C231.4 148.715 230.296 149.782 229.437 151.037C228.578 152.292 227.982 153.708 227.686 155.2C226.227 162.5 222.579 175.749 214.663 182.466C211.016 185.495 201.349 190.97 184.897 199.219C184.688 199.229 184.479 199.204 184.277 199.146Z" fill="#FF5E62"/>
<path d="M129.925 198.672C129.669 198.668 129.418 198.594 129.199 198.46C128.981 198.325 128.803 198.133 128.685 197.905C128.536 197.581 128.521 197.211 128.644 196.875C128.767 196.54 129.018 196.267 129.342 196.117C166.768 178.743 183.11 171.953 187.706 171.953C192.666 173.205 197.55 174.74 202.334 176.552C202.667 176.676 202.939 176.924 203.096 177.243C203.252 177.562 203.279 177.929 203.173 178.268C203.12 178.439 203.032 178.597 202.916 178.732C202.8 178.868 202.657 178.979 202.496 179.057C202.336 179.136 202.161 179.181 201.983 179.19C201.804 179.198 201.626 179.17 201.459 179.108C196.974 177.366 192.395 175.879 187.743 174.654C182.125 174.654 146.048 191.372 130.655 198.526C130.439 198.664 130.178 198.717 129.925 198.672Z" fill="#FF5E62"/>
<path d="M117.923 183.853C117.677 183.842 117.438 183.77 117.227 183.642C117.017 183.515 116.842 183.336 116.719 183.123C116.638 182.962 116.59 182.788 116.578 182.608C116.565 182.429 116.589 182.25 116.647 182.08C116.704 181.91 116.795 181.753 116.914 181.619C117.033 181.485 117.178 181.375 117.339 181.298C126.107 177.249 134.515 172.462 142.473 166.989C149.768 160.784 153.197 148.192 154.583 141.22C154.958 139.387 155.697 137.647 156.756 136.105C157.815 134.562 159.172 133.248 160.748 132.241C168.792 127.187 178.098 124.505 187.596 124.505C197.094 124.505 206.4 127.187 214.444 132.241C217.714 134.417 220.457 137.298 222.469 140.672C222.583 140.826 222.662 141.003 222.703 141.19C222.743 141.377 222.743 141.571 222.703 141.758C222.663 141.945 222.584 142.122 222.47 142.276C222.357 142.43 222.212 142.558 222.045 142.652C221.878 142.746 221.694 142.803 221.503 142.82C221.312 142.837 221.12 142.814 220.94 142.751C220.759 142.688 220.594 142.587 220.455 142.455C220.316 142.323 220.207 142.164 220.134 141.986C218.301 138.971 215.806 136.413 212.839 134.504C205.229 129.733 196.43 127.203 187.45 127.203C178.47 127.203 169.671 129.733 162.061 134.504C160.778 135.319 159.674 136.386 158.815 137.641C157.956 138.896 157.36 140.312 157.064 141.804C155.605 149.104 151.957 162.317 144.041 169.07C135.976 174.679 127.431 179.565 118.507 183.67C118.323 183.761 118.126 183.823 117.923 183.853Z" fill="#FF5E62"/>
<path d="M449.071 130.014H448.742L308.411 95.3753C308.069 95.2813 307.778 95.0562 307.6 94.7488C307.423 94.4414 307.374 94.0764 307.463 93.7328C307.506 93.5647 307.581 93.4067 307.685 93.2678C307.789 93.129 307.919 93.0121 308.068 92.9239C308.217 92.8357 308.382 92.7779 308.554 92.7538C308.726 92.7298 308.9 92.74 309.068 92.7838L449.362 127.386C449.552 127.412 449.734 127.481 449.894 127.587C450.054 127.693 450.188 127.833 450.286 127.998C450.384 128.163 450.444 128.348 450.46 128.539C450.477 128.73 450.451 128.922 450.384 129.102C450.296 129.377 450.119 129.616 449.882 129.781C449.644 129.946 449.359 130.028 449.071 130.014Z" fill="#FF5E62"/>
<path d="M285.905 89.7907H285.576L243.444 79.3516C243.1 79.2571 242.806 79.0336 242.623 78.7278C242.439 78.4219 242.381 78.057 242.459 77.7091C242.561 77.3699 242.786 77.081 243.09 76.8987C243.393 76.7165 243.754 76.654 244.101 76.7235L286.233 87.1262C286.406 87.1689 286.568 87.2453 286.711 87.3511C286.854 87.4568 286.975 87.5899 287.067 87.7425C287.158 87.8952 287.219 88.0644 287.245 88.2405C287.27 88.4166 287.261 88.5961 287.218 88.7687C287.139 89.0583 286.968 89.3145 286.731 89.4988C286.495 89.6831 286.204 89.7855 285.905 89.7907Z" fill="#FF5E62"/>
<path d="M218.967 73.256H218.639L174.865 62.3058C174.692 62.2631 174.53 62.1867 174.387 62.0809C174.244 61.9752 174.123 61.8421 174.031 61.6895C173.94 61.5368 173.879 61.3676 173.853 61.1915C173.827 61.0154 173.836 60.8359 173.88 60.6633C173.982 60.3241 174.207 60.0352 174.51 59.8529C174.814 59.6707 175.175 59.6082 175.522 59.6778L219.295 70.6279C219.469 70.6616 219.634 70.7311 219.78 70.832C219.925 70.9329 220.048 71.063 220.141 71.214C220.234 71.3651 220.294 71.5337 220.318 71.7093C220.342 71.8849 220.329 72.0636 220.28 72.2339C220.213 72.5298 220.045 72.7933 219.806 72.9796C219.567 73.1659 219.27 73.2635 218.967 73.256Z" fill="#FF5E62"/>
<path d="M150.754 56.4293H150.425L91.2581 41.8291C90.7839 41.8291 81.6279 38.5075 81.6279 24.1993C81.6279 9.89112 90.8569 7.15358 91.2216 7.04408C91.4495 6.98977 91.6869 6.98977 91.9147 7.04408L163.922 24.8198C164.096 24.8535 164.261 24.923 164.407 25.0239C164.552 25.1248 164.675 25.2549 164.768 25.4059C164.861 25.557 164.921 25.7257 164.945 25.9012C164.969 26.0768 164.956 26.2555 164.907 26.4258C164.869 26.5973 164.796 26.7592 164.694 26.9021C164.592 27.045 164.462 27.166 164.313 27.2579C164.163 27.3497 163.997 27.4107 163.823 27.437C163.649 27.4634 163.472 27.4547 163.302 27.4114L91.6594 9.74511C90.2367 10.2926 84.3638 13.3952 84.3638 24.3453C84.3638 36.646 91.6594 39.3105 92.0606 39.42L151.118 54.0202C151.455 54.1146 151.743 54.3325 151.925 54.6302C152.108 54.9279 152.171 55.2836 152.103 55.6263C151.99 55.8843 151.799 56.1004 151.557 56.2444C151.315 56.3884 151.034 56.453 150.754 56.4293Z" fill="#FF5E62"/>
<path d="M230.932 44.0556H230.64L196.788 35.6605C196.468 35.5901 196.188 35.3992 196.004 35.1275C195.821 34.8557 195.749 34.5238 195.803 34.2004C195.842 34.029 195.914 33.8671 196.016 33.7242C196.119 33.5813 196.248 33.4603 196.398 33.3684C196.547 33.2765 196.714 33.2156 196.888 33.1893C197.061 33.1629 197.238 33.1716 197.408 33.2149L231.26 41.5006C231.431 41.539 231.593 41.6115 231.736 41.7137C231.879 41.8159 232 41.9456 232.091 42.0954C232.183 42.2451 232.244 42.4117 232.271 42.5854C232.297 42.7591 232.288 42.9363 232.245 43.1066C232.164 43.3889 231.99 43.6358 231.752 43.8078C231.514 43.9799 231.225 44.0671 230.932 44.0556Z" fill="#FF5E62"/>
<path d="M296.373 60.1888H296.045L259.895 51.2827C259.556 51.1806 259.268 50.9557 259.086 50.652C258.903 50.3482 258.841 49.9875 258.91 49.6401C258.967 49.4637 259.06 49.3009 259.182 49.1618C259.304 49.0226 259.454 48.9102 259.622 48.8315C259.789 48.7527 259.971 48.7093 260.157 48.704C260.342 48.6987 260.526 48.7316 260.698 48.8006L296.848 57.7068C297.196 57.7503 297.513 57.9305 297.728 58.2078C297.944 58.485 298.04 58.8365 297.997 59.185C297.953 59.5335 297.773 59.8504 297.496 60.0661C297.219 60.2817 296.868 60.3784 296.519 60.3348L296.373 60.1888Z" fill="#FF5E62"/>
<path d="M456.512 99.6824H456.183L326.614 67.7079C326.441 67.6653 326.278 67.5889 326.135 67.4831C325.992 67.3773 325.871 67.2443 325.78 67.0916C325.688 66.939 325.628 66.7697 325.602 66.5936C325.576 66.4175 325.585 66.238 325.629 66.0654C325.723 65.7214 325.946 65.4271 326.252 65.2436C326.558 65.0601 326.922 65.0014 327.27 65.0799L456.84 97.0544C457.174 97.1486 457.459 97.3681 457.636 97.6672C457.812 97.9663 457.867 98.322 457.788 98.6604C457.722 98.9501 457.56 99.2088 457.328 99.3945C457.097 99.5801 456.809 99.6816 456.512 99.6824Z" fill="#FF5E62"/>
<path d="M469.972 135.161C462.239 135.161 455.928 127.35 455.928 117.75C455.928 108.151 462.239 100.339 469.972 100.339C477.706 100.339 483.98 108.151 483.98 117.75C483.98 127.35 477.706 135.161 469.972 135.161ZM469.972 103.004C463.698 103.004 458.591 109.611 458.591 117.604C458.591 125.598 463.698 132.204 469.972 132.204C476.247 132.204 481.317 125.598 481.317 117.604C481.317 109.611 476.21 103.004 469.972 103.004Z" fill="#FF5E62"/>
</g>
<g filter="url(#filter1_d)">
<path d="M148.443 273.42L136.007 328.67L201.3 358.901L220.991 334.925C220.991 334.925 220.991 420.406 170.208 464.189C119.424 507.972 112.326 561.522 136.007 618.473C164.551 687.12 240.392 718.381 310.121 693.53C350.617 679.097 364.638 645.039 390.96 618.473C417.792 591.392 434.489 505.888 434.489 505.888V334.925L447.962 358.901L506 328.67C503.927 318.593 499.16 295.103 496.672 281.76C494.185 268.416 486.654 256.741 483.199 252.571L402 214C340.5 303 264.52 249.791 238.61 214C223.409 220.602 188.656 236.309 171.244 246.316C153.833 256.324 148.789 268.555 148.443 273.42Z" fill="#B5EBF6"/>
</g>
<defs>
<filter id="filter0_d" x="0" y="0" width="511" height="338" filterUnits="userSpaceOnUse" color-interpolation-filters="sRGB">
<feFlood flood-opacity="0" result="BackgroundImageFix"/>
<feColorMatrix in="SourceAlpha" type="matrix" values="0 0 0 0 0 0 0 0 0 0 0 0 0 0 0 0 0 0 127 0"/>
<feOffset dy="4"/>
<feGaussianBlur stdDeviation="4.5"/>
<feColorMatrix type="matrix" values="0 0 0 0 0 0 0 0 0 0 0 0 0 0 0 0 0 0 0.18 0"/>
<feBlend mode="normal" in2="BackgroundImageFix" result="effect1_dropShadow"/>
<feBlend mode="normal" in="SourceGraphic" in2="effect1_dropShadow" result="shape"/>
</filter>
<filter id="filter1_d" x="113" y="208" width="403" height="508" filterUnits="userSpaceOnUse" color-interpolation-filters="sRGB">
<feFlood flood-opacity="0" result="BackgroundImageFix"/>
<feColorMatrix in="SourceAlpha" type="matrix" values="0 0 0 0 0 0 0 0 0 0 0 0 0 0 0 0 0 0 127 0"/>
<feOffset dy="4"/>
<feGaussianBlur stdDeviation="5"/>
<feColorMatrix type="matrix" values="0 0 0 0 0.19375 0 0 0 0 0.600625 0 0 0 0 0.775 0 0 0 0.18 0"/>
<feBlend mode="normal" in2="BackgroundImageFix" result="effect1_dropShadow"/>
<feBlend mode="normal" in="SourceGraphic" in2="effect1_dropShadow" result="shape"/>
</filter>
<clipPath id="clip0">
<rect width="493" height="320" fill="white" transform="translate(9 5)"/>
</clipPath>
</defs>
</svg>
