<svg xmlns="http://www.w3.org/2000/svg" viewBox="0 0 39.61 66.54"><title>Asset 28</title><g id="Layer_2" data-name="Layer 2"><g id="Layer_1-2" data-name="Layer 1"><path d="M.66,56.25V66.54H6.13V56.25ZM33.43,66.54H38.9V56.25H33.43Zm.25-58.83L20.85,32.63c-.59,1.23-1,2.06-1.13,2.48l-1.13-2.48L5.82,7.71H.66V46.82H6.13V22a31.75,31.75,0,0,0-.19-4c.26.64.88,2,1.89,4l11.7,23.39L31.61,22.1q1.32-2.7,2-4.18c-.09,1.27-.13,2.63-.13,4.07V46.82H38.9V7.71Z"/><path d="M6.28,54.24a.38.38,0,0,1-.19,0l-.84,0c-.2,0-.29,0-.29-.12a.28.28,0,0,1,0-.08l0-2.44-.09-1.38-1,2.17q-.8,1.68-1,1.68A10.8,10.8,0,0,1,2,52.58C1.3,51.32.9,50.59.76,50.37a10.36,10.36,0,0,0-.1,1.14L.56,53v.32a.85.85,0,0,0,.21.58.68.68,0,0,0,.52.31s0,0-.1,0H.7a2.33,2.33,0,0,0-.7.09A3.45,3.45,0,0,1,.13,54a3.31,3.31,0,0,0,.12-.42c0-.18.09-.61.18-1.31.1-.87.15-1.48.15-1.82q0-.78-.54-1s.07,0,.18,0a1.51,1.51,0,0,1,.29,0H.68l.52,0s.08,0,.11.11a16.53,16.53,0,0,0,.95,2.06c.4.76.74,1.34,1,1.76a7.83,7.83,0,0,0,.47-1l.6-1.38a9.08,9.08,0,0,0,.49-1.4l1-.07s0,0-.08.08-.06.09-.07.22,0,.29,0,.31V51.7c0,.54,0,.93.06,1.15A8.63,8.63,0,0,0,5.83,54c0,.09.1.15.23.17S6.26,54.21,6.28,54.24Z"/><path d="M13.87,54.23l-.79,0q-.42,0-.72-.6c-.11-.27-.23-.54-.35-.8a10.4,10.4,0,0,0-.46-1H10.14c-.07,0-.16.12-.28.36s-.11.29-.16.43a2.81,2.81,0,0,0-.28,1,.37.37,0,0,0,.22.39l.55.17-.94.11-.36,0-.37,0a2.4,2.4,0,0,0,.65-.84c.18-.37.48-1,.88-2a11.53,11.53,0,0,0,.67-1.75.22.22,0,0,0-.08-.19.29.29,0,0,0-.2-.07h-.13l-.06,0s0,0,.08-.05l.15,0,.8,0c.1,0,.22.12.33.36s.13.3.19.46c.23.59.45,1.19.68,1.79a10.34,10.34,0,0,0,1,2,.5.5,0,0,0,.24.21Zm-2.35-2.47V51.7s-.16-.43-.48-1.26a2.92,2.92,0,0,0-.2-.39l-.72,1.71Z"/><path d="M19.07,52.81A1.37,1.37,0,0,1,18.5,54a1.94,1.94,0,0,1-1.18.36l-.31,0H16.7l-.4-.08a1,1,0,0,1-.37-.11l0-.19a3.16,3.16,0,0,0,.06-.47.78.78,0,0,1,0-.24,2.62,2.62,0,0,1,.1.31c.06.18.26.33.6.46a2.1,2.1,0,0,0,.73.16,1.12,1.12,0,0,0,.68-.2.74.74,0,0,0,.32-.64,1.07,1.07,0,0,0-.37-.81,3.24,3.24,0,0,0-.84-.47,5.78,5.78,0,0,1-.85-.39,1,1,0,0,1-.35-.39,1.15,1.15,0,0,1-.13-.48,1.2,1.2,0,0,1,.66-1.05,2.23,2.23,0,0,1,1.14-.32l1.2.05v.08l-.06.18a1.62,1.62,0,0,0-.09.32,3.15,3.15,0,0,1,0,.37s0,0-.05-.11a.46.46,0,0,0,0-.13,1.12,1.12,0,0,0-1.13-.59c-.63,0-.94.24-.94.73A.84.84,0,0,0,17,51a8,8,0,0,0,1,.49,2.32,2.32,0,0,1,.77.44A1.15,1.15,0,0,1,19.07,52.81Z"/><path d="M24.79,52.81A1.36,1.36,0,0,1,24.23,54a2,2,0,0,1-1.19.36l-.3,0h-.31l-.4-.08c-.25,0-.37-.09-.37-.11l0-.19a2.21,2.21,0,0,0,.07-.47.72.72,0,0,1,0-.24,1.76,1.76,0,0,1,.11.31c.06.18.26.33.6.46a2.1,2.1,0,0,0,.73.16,1.09,1.09,0,0,0,.67-.2.72.72,0,0,0,.32-.64,1,1,0,0,0-.37-.81A3.15,3.15,0,0,0,23,52a5.78,5.78,0,0,1-.85-.39.89.89,0,0,1-.35-.39,1,1,0,0,1-.13-.48,1.2,1.2,0,0,1,.66-1.05,2.2,2.2,0,0,1,1.13-.32l1.2.05v.08l-.06.18a2.44,2.44,0,0,0-.08.32c0,.09,0,.21,0,.37,0,0,0,0-.05-.11s0-.12,0-.13a1.13,1.13,0,0,0-1.13-.59c-.63,0-.94.24-.94.73a.84.84,0,0,0,.39.73,8,8,0,0,0,1,.49,2.43,2.43,0,0,1,.77.44A1.14,1.14,0,0,1,24.79,52.81Z"/><path d="M31.09,53.92a1,1,0,0,0-.28.37l-.21.41a1.31,1.31,0,0,0-.05-.27c-.06-.12-.33-.18-.83-.18l-2,0a1,1,0,0,0,.1-.38,3.31,3.31,0,0,0,0-.5l.05-.83v-1a1.13,1.13,0,0,1,0-.14V51c0-.12,0-.35,0-.66a2.36,2.36,0,0,0-.08-.69.37.37,0,0,0-.22-.08l-.22,0v0a0,0,0,0,0,0,0l3.25-.11a3.71,3.71,0,0,0-.21.44l-.07.17h-.05a.15.15,0,0,0,0-.09c0-.08-.06-.14-.19-.19a.64.64,0,0,0-.28-.07l-.06,0a2.11,2.11,0,0,0-.78-.09.87.87,0,0,0-.28,0s-.07.09-.07.21a2.53,2.53,0,0,0,0,.28c0,.24,0,.61-.05,1.1,0,.25,0,.39,0,.42a3.24,3.24,0,0,0,.61,0,3.94,3.94,0,0,0,1.25-.2.05.05,0,0,1,0,0,1.81,1.81,0,0,1-.1.26c-.07.19-.12.3-.13.33s0,0-.06-.07a.2.2,0,0,0-.07-.1,2.37,2.37,0,0,0-1.08-.15l-.42,0a.21.21,0,0,0,0,.14v1.55a.87.87,0,0,0,0,.11c0,.08,0,.13,0,.16a.79.79,0,0,0,0,.23,3.41,3.41,0,0,0,.94.1h.3A3.14,3.14,0,0,0,30.5,54a1.49,1.49,0,0,0,.52-.16h.07Z"/><path d="M39.61,54.24a.38.38,0,0,1-.19,0l-.84,0c-.19,0-.29,0-.29-.12a.28.28,0,0,1,0-.08l0-2.44-.1-1.38c-.33.73-.66,1.45-1,2.17-.53,1.12-.86,1.68-1,1.68a9.19,9.19,0,0,1-.9-1.55c-.67-1.26-1.07-2-1.2-2.21A11.21,11.21,0,0,0,34,51.51L33.89,53a1.37,1.37,0,0,1,0,.32.85.85,0,0,0,.21.58.7.7,0,0,0,.52.31s0,0-.1,0H34a2.43,2.43,0,0,0-.7.09c0-.09.07-.21.13-.37a2.25,2.25,0,0,0,.13-.42c0-.18.09-.61.17-1.31.1-.87.16-1.48.16-1.82,0-.52-.19-.84-.55-1a.31.31,0,0,1,.18,0,1.5,1.5,0,0,1,.29,0H34l.52,0s.09,0,.11.11a18.15,18.15,0,0,0,1,2.06c.41.76.74,1.34,1,1.76a8.78,8.78,0,0,0,.48-1l.6-1.38a8,8,0,0,0,.48-1.4l.95-.07s0,0-.08.08,0,.09-.06.22,0,.29,0,.31V51.7c0,.54,0,.93,0,1.15A8.43,8.43,0,0,0,39.17,54c0,.09.09.15.22.17S39.59,54.21,39.61,54.24Z"/><path d="M5.27,5l-.11,0-1.26,0c-.14,0-.33-.13-.57-.37s-.48-.54-.91-1.08L2,3.05a2,2,0,0,0-.28-.35s-.07,0-.1.11l0,1.72a1.2,1.2,0,0,0,0,.2.49.49,0,0,0,.08.21.58.58,0,0,1,.15.13l-1.1,0c0-.18,0-.42.07-.7l0-1.62s0-.08,0-.22V2L.91.93l0-.41A.39.39,0,0,0,.66.18,1.86,1.86,0,0,1,1.1.1l.46,0H1.7l-.07,1V2.51a3.85,3.85,0,0,0,1.11-1C3.32,1,3.6.56,3.6.36s0-.16-.08-.17L3.32.13v0H4.5V.15A7.31,7.31,0,0,0,3.61,1c-.1.09-.28.24-.51.46a5.46,5.46,0,0,0-.67.69,4,4,0,0,0,.43.64c.46.64.78,1.07,1,1.28.5.6.9.89,1.18.89h.26Z"/><path d="M10.64,4.94a1.3,1.3,0,0,1-.49.06H9.92a.85.85,0,0,1-.61-.23,6.7,6.7,0,0,1-.47-.68l-.3-.52a3.12,3.12,0,0,0-.4-.5A1,1,0,0,0,7.52,3S7.45,3,7.45,3V4.3c0,.46.13.68.37.68a.15.15,0,0,1,.1,0l-.24,0H7.12a4.65,4.65,0,0,0-.6.07l.17-.16a2.6,2.6,0,0,0,.06-.77l0-1V2.74s0-.07,0-.18,0-.16,0-.17V1.92l0-.92A2.07,2.07,0,0,0,6.65.31a.1.1,0,0,0-.07,0l-.09,0,.16,0L7,.18h.55l.73,0a2,2,0,0,1,1,.23,1,1,0,0,1,.54.91,1.47,1.47,0,0,1-.22.79,2.32,2.32,0,0,1-.43.49,1.81,1.81,0,0,0-.26.26l.18.28.36.56.37.63a2,2,0,0,0,.44.51.39.39,0,0,0,.17.09ZM9.07,1.85a1.7,1.7,0,0,0-.37-1A1.16,1.16,0,0,0,7.75.26H7.51l0,2.62H8a1.47,1.47,0,0,0,.89-.18A1.12,1.12,0,0,0,9.07,1.85Z"/><path d="M16.39.2l-.2.24c-.18.24-.5.71-1,1.41-.11.16-.25.39-.44.68l-.12.23,0,1a3.68,3.68,0,0,0,.08,1.13,1.48,1.48,0,0,0,.34.13V5l-.76,0-.76,0,.19-.14a.48.48,0,0,0,.16-.24,4.32,4.32,0,0,0,.1-.89,2.48,2.48,0,0,0-.05-.62s-.13-.23-.36-.61-.64-1-1.11-1.7a2.87,2.87,0,0,0-.21-.34,1.79,1.79,0,0,0-.2-.26A.12.12,0,0,0,12,.2l-.1,0a.09.09,0,0,1,0-.05L13,.09c.23.37.45.75.67,1.12a15.09,15.09,0,0,0,.92,1.37,8.06,8.06,0,0,0,.52-.88,3.62,3.62,0,0,0,.5-1.2c0-.19-.13-.27-.4-.27V.17h1C16.33.17,16.39.18,16.39.2Z"/><path d="M20.58,3.54A1.36,1.36,0,0,1,20,4.71a2,2,0,0,1-1.19.36l-.3,0h-.31L17.82,5c-.25,0-.37-.09-.37-.11l0-.19a2.23,2.23,0,0,0,.06-.47,1.11,1.11,0,0,1,0-.23,1.2,1.2,0,0,1,.11.3c.05.18.25.33.6.47a2.3,2.3,0,0,0,.73.16,1.09,1.09,0,0,0,.67-.21A.73.73,0,0,0,20,4.05a1,1,0,0,0-.37-.82,3.15,3.15,0,0,0-.83-.47,6.74,6.74,0,0,1-.86-.39A.93.93,0,0,1,17.6,2a1,1,0,0,1-.13-.48,1.18,1.18,0,0,1,.66-1A2.12,2.12,0,0,1,19.26.13l1.2,0V.26L20.4.44a1.4,1.4,0,0,0-.08.33q0,.12,0,.36s0,0-.05-.11,0-.12,0-.13A1.14,1.14,0,0,0,19.08.3c-.62,0-.93.24-.93.73a.83.83,0,0,0,.39.73,6.25,6.25,0,0,0,1,.49,2.64,2.64,0,0,1,.77.44A1.14,1.14,0,0,1,20.58,3.54Z"/><path d="M26.31.07l-.12.36a1.16,1.16,0,0,0-.06.34V.85l-.05,0s0,0-.06-.13A.87.87,0,0,0,26,.55C25.87.42,25.49.36,24.8.36h-.12l-.14,0a2.21,2.21,0,0,0-.09.64l0,.76,0,1.52v.91a1.92,1.92,0,0,1,0,.3.53.53,0,0,0,.08.3.28.28,0,0,0,.19.1l.22.06L24.8,5l-.72,0-.5,0-.13,0h-.14s0,0,.09-.07a.27.27,0,0,0,.12,0,1.06,1.06,0,0,0,.1-.42c0-.2.05-.56.09-1.06l0-2c0-.69,0-1-.11-1A5.28,5.28,0,0,0,23,.47l-.54.09a.72.72,0,0,0-.22.14.47.47,0,0,0-.16.24H22v0s0-.07.07-.19.07-.22.1-.34.14-.28.2-.28l1.76.05h1.3a3.8,3.8,0,0,0,.8-.08Z"/><path d="M31.48,5l-.79,0c-.27,0-.51-.2-.71-.6l-.35-.8c-.09-.23-.25-.55-.46-1H27.75c-.07,0-.16.12-.27.37l-.17.42a2.79,2.79,0,0,0-.28,1,.37.37,0,0,0,.22.38l.55.18-.93.1L26.5,5l-.37,0a2.21,2.21,0,0,0,.65-.84c.19-.37.48-1,.89-2A11.53,11.53,0,0,0,28.34.43a.23.23,0,0,0-.09-.19.26.26,0,0,0-.19-.07h-.13a.08.08,0,0,1-.07,0s0,0,.08,0l.15,0,.8,0c.11,0,.22.11.34.35l.19.46c.22.6.45,1.19.68,1.79a11,11,0,0,0,1,2,.61.61,0,0,0,.24.21ZM29.13,2.49V2.44S29,2,28.65,1.18a1.64,1.64,0,0,0-.2-.4l-.72,1.71Z"/><path d="M35.23,4.46c-.18.24-.29.39-.33.46a1.68,1.68,0,0,0-.21.49,1.68,1.68,0,0,0-.25-.26.66.66,0,0,0-.28-.1,9.2,9.2,0,0,0-1.31,0,1,1,0,0,0-.22,0h-.27s0,0,.07-.06a.16.16,0,0,0,.1-.11,2.82,2.82,0,0,0,.07-.79l.06-1.15V1.6l0-.45V.85A2.48,2.48,0,0,0,32.58.4a.66.66,0,0,0-.07-.23s0,0-.13-.07a.89.89,0,0,1,.38,0A2.48,2.48,0,0,0,33.29,0c0,.06,0,.17,0,.33a3.58,3.58,0,0,0,0,.36c0,.34,0,1.13-.05,2.35l0,1.18a2.23,2.23,0,0,0,0,.32c0,.17,0,.26.08.27a1.6,1.6,0,0,0,.36,0h.56a1,1,0,0,0,1-.44S35.21,4.43,35.23,4.46Z"/><path d="M39.32,4.46,39,4.92a1.64,1.64,0,0,0-.2.49,2.43,2.43,0,0,0-.25-.26.66.66,0,0,0-.28-.1,9.28,9.28,0,0,0-1.32,0,1,1,0,0,0-.21,0h-.28s0,0,.08-.06a.18.18,0,0,0,.1-.11,3.28,3.28,0,0,0,.07-.79l.06-1.15V1.6l0-.45V.85a2.48,2.48,0,0,0,0-.45.66.66,0,0,0-.07-.23L36.48.1a.86.86,0,0,1,.38,0A2.28,2.28,0,0,0,37.38,0a2.48,2.48,0,0,1,0,.33q0,.25,0,.36c0,.34,0,1.13,0,2.35l0,1.18a2.23,2.23,0,0,0,0,.32c0,.17,0,.26.08.27a1.6,1.6,0,0,0,.36,0h.56a1,1,0,0,0,1-.44S39.31,4.43,39.32,4.46Z"/></g></g></svg>